<?xml version="1.0" encoding="utf-8"?>
<!-- Generator: Adobe Illustrator 16.0.0, SVG Export Plug-In . SVG Version: 6.00 Build 0)  -->
<!DOCTYPE svg PUBLIC "-//W3C//DTD SVG 1.1//EN" "http://www.w3.org/Graphics/SVG/1.1/DTD/svg11.dtd">
<svg version="1.1" id='btnmain' xmlns="http://www.w3.org/2000/svg" xmlns:xlink="http://www.w3.org/1999/xlink" x="0px" y="0px" width="1190px"
	 height="1684px" viewBox="0 0 1190 1684" style="enable-background:new 0 0 1190 1684;" xml:space="preserve">
<style type="text/css">
<![CDATA[
	.st0{fill-rule:evenodd;clip-rule:evenodd;fill:#FFFFFF;stroke:#FFFFFF;stroke-width:0.5669;stroke-miterlimit:22.9256;}
	.st1{fill:#FFFFFF;}
	.st2{fill-rule:evenodd;clip-rule:evenodd;fill:#FF0000;}
	.st3{fill-rule:evenodd;clip-rule:evenodd;fill:#FFFFFF;}
]]>
</style>
<g id="图层_33">
</g>
<g id="btnl">
	<g>
		<path class="st2" d="M616.6,563.1c-3.1-4.6-8.9-14.1-8.7-19c0.1-5,4.4-8.8,9.5-8.7c5.1,0.1,9.1,4.3,9,9.2
			C626.2,549.6,619.1,560.1,616.6,563.1z"/>
		<g>
			<rect x="613.9" y="543.9" class="st3" width="2.7" height="4.8"/>
			<rect x="617.7" y="543.9" class="st3" width="2.7" height="4.8"/>
			<rect x="613.3" y="542.3" class="st3" width="3.3" height="1.1"/>
			<rect x="617.7" y="542.3" class="st3" width="3.3" height="1.1"/>
			<path class="st3" d="M617.7,542.3c0,0-1.8,0.2-2.3-0.3c-0.5-0.5-0.4-1.2,0.1-1.5c0.5-0.4,1.4-0.1,1.6,0.6
				c0.1,0.7,0.2,0.9,0.2,0.9s-0.1-1.7,0.9-1.7c1-0.1,1.5,0.7,1.3,1.5C619.1,542.6,617.7,542.3,617.7,542.3z"/>
			<path class="st2" d="M616.9,541.9c0,0-0.1-1.1-0.6-1.2c-0.5,0-1.1,0.6-0.6,1C616.2,542.1,616.9,541.9,616.9,541.9z"/>
			<path class="st2" d="M617.6,541.9c0,0,0.1-1.1,0.6-1.2c0.5,0,1.1,0.6,0.6,1C618.3,542.1,617.6,541.9,617.6,541.9z"/>
		</g>
	</g>
	<g>
		<path class="st2" d="M619.7,585.4c-3.1-4.6-8.9-14.1-8.7-19c0.1-5,4.4-8.8,9.5-8.7c5.1,0.1,9.1,4.3,9,9.2
			C629.3,571.9,622.2,582.4,619.7,585.4z"/>
		<g>
			<path class="st1" d="M618.9,569.1v4.1h-2.5v-11.8h4.1c2.9,0,4.4,1.2,4.4,3.7c0,1.2-0.4,2.2-1.3,2.9s-2,1.1-3.3,1H618.9z
				 M618.9,563.4v3.8h1.1c1.5,0,2.2-0.6,2.2-1.9c0-1.3-0.7-1.9-2.2-1.9H618.9z"/>
		</g>
		<path class="st1" d="M615.7,576.2v-0.5h2.2v0.5h-0.4V576h-1.4v0.2H615.7L615.7,576.2z M615.5,574.3c-0.1,0.5-0.3,1-0.5,1.3
			c0.1,0.2,0.1,0.4,0.1,0.5c0.1-0.1,0.1-0.2,0.2-0.3v1.4h0.4V575c0.1-0.2,0.1-0.4,0.2-0.6L615.5,574.3L615.5,574.3z M616,574.9h1.6
			v0.7H616V574.9L616,574.9z M617.9,574.8h-2v-0.3h0.8c0-0.1-0.1-0.1-0.1-0.2l0.4-0.1c0,0.1,0.1,0.2,0.1,0.3h0.8V574.8L617.9,574.8z
			 M617.2,575.4v-0.2h-0.9v0.2H617.2L617.2,575.4z M617.7,576.2v0.3h-0.6v0.2c0,0.2-0.1,0.4-0.3,0.4c-0.1,0-0.3,0-0.5,0
			c0-0.1,0-0.2-0.1-0.4c0.1,0,0.2,0,0.4,0c0.1,0,0.1,0,0.1-0.2v-0.1h-0.8v-0.3H617.7L617.7,576.2z M618.2,576.3h1.3v-0.3h-1v-0.3
			c0.1-0.2,0.2-0.4,0.3-0.6h-0.5v-0.4h0.7c0.1-0.1,0.1-0.2,0.1-0.4l0.4,0.1l-0.1,0.3h1.5v0.4h-1.7c-0.1,0.2-0.2,0.4-0.3,0.6h0.6
			v-0.5h0.4v0.5h0.8v0.4h-0.8v0.3h1.1v0.4h-1.1v0.6h-0.4v-0.6h-1.3V576.3L618.2,576.3z M623.1,575.3h1c0,0.4,0,0.8,0,1.2
			c0,0.3-0.2,0.5-0.4,0.5c-0.1,0-0.2,0-0.4,0c0-0.1,0-0.3-0.1-0.4c-0.1,0.2-0.2,0.3-0.4,0.4c-0.1-0.1-0.2-0.2-0.4-0.3
			c0.4-0.3,0.7-0.7,0.8-1.2H623c-0.1,0.4-0.3,0.7-0.5,0.9c-0.1,0-0.1-0.1-0.1-0.1c0,0.1,0,0.1,0,0.2c-0.3,0.1-0.7,0.1-0.9,0.2
			l-0.1-0.4c0.1,0,0.2,0,0.3-0.1v-1h-0.3V575h0.3v-0.7h0.4v0.7h0.3v0.4H622v1c0.1,0,0.1,0,0.1,0c0.2-0.2,0.4-0.4,0.5-0.7h-0.3v-0.3
			l0.9-0.6h-0.9v-0.4h1.6v0.3L623.1,575.3L623.1,575.3z M623.5,576.7c0.2,0,0.2-0.1,0.3-0.2c0-0.2,0-0.5,0-0.8h-0.2
			c-0.1,0.4-0.2,0.7-0.4,1C623.3,576.7,623.4,576.7,623.5,576.7z"/>
	</g>
	<g>
		<path class="st2" d="M571,640.4c-3.1-4.6-8.9-14.1-8.7-19c0.1-5,4.4-8.8,9.5-8.7c5.1,0.1,9.1,4.3,9,9.2
			C580.6,626.9,573.4,637.4,571,640.4z"/>
		<g>
			<g>
				<circle class="st3" cx="568" cy="616.6" r="1.2"/>
				<path class="st3" d="M568,618l-1.5,0c0,0-0.7-0.1-0.7,0.6c0,0.6,0.1,3.4,0.1,3.4s0,0.7,0.4,0.7c0.4,0,0.5-0.3,0.5-0.7
					c0-0.4,0-1.8,0-1.8s0-0.2,0.1-0.2c0.1-0.1,0.1,0.1,0.1,0.2c0,0.2,0.2,7.1,0.2,7.1s0.1,0.5,0.7,0.4c0.6-0.1,0.5-0.4,0.5-1.1
					c0-0.6-0.2-8.1-0.2-8.1L568,618z"/>
				<path class="st3" d="M567.7,618l1.8,0c0,0,0.8-0.1,0.8,0.5c0,0.6,0.1,3.4,0.1,3.4s0,0.7-0.4,0.7c-0.4,0-0.5-0.3-0.5-0.7
					c0-0.4,0-1.8,0-1.8s0-0.2-0.1-0.2c-0.1-0.1-0.1,0.1-0.1,0.2c0,0.2,0.1,7.1,0.1,7.1s-0.1,0.5-0.8,0.4c-0.7-0.1-0.6-0.4-0.6-1
					c0-0.6-0.2-8.1-0.2-8.1L567.7,618z"/>
				<rect x="568" y="623.9" class="st0" width="0" height="3.6"/>
			</g>
			<g>
				<circle class="st3" cx="573.8" cy="616.5" r="1.1"/>
				<path class="st3" d="M573.7,617.9c0,0-1.2-0.2-1.6,0.5c-0.4,0.7-1.1,3.3-1.1,3.3s-0.1,0.8,0.6,0.6c0.6-0.2,0.7-2.3,1-2.3
					c0.3,0-1,3.6-1,3.6l1.3,0l0.1,3.3c0,0,0,0.8,0.5,0.7c0.5,0,0.5-0.6,0.5-0.8C573.9,626.7,573.7,617.9,573.7,617.9z"/>
				<path class="st3" d="M573.6,617.9c0,0,1.4-0.2,2,0.5c0.5,0.7,1.6,3.3,1.6,3.3s0.1,0.8-0.7,0.6c-0.8-0.2-1-2.3-1.4-2.3
					c-0.4,0,1.4,3.5,1.4,3.5l-1.6,0l0.1,3.3c0,0,0.1,0.8-0.6,0.8c-0.6,0-0.6-0.6-0.6-0.8C573.7,626.7,573.6,617.9,573.6,617.9z"/>
				<rect x="573.8" y="623.6" class="st0" width="0" height="3.8"/>
			</g>
		</g>
		<path class="st1" d="M569.6,631.3c0.1,0.1,0.2,0.1,0.4,0.2c0,0.3-0.1,0.6-0.2,0.6c-0.1,0.1-0.2,0.1-0.3,0.1h-0.2
			c-0.2,0-0.4-0.1-0.4-0.4V631h-0.2c0,0.4-0.1,0.7-0.2,0.8c-0.1,0.2-0.3,0.3-0.5,0.4c-0.1-0.1-0.2-0.2-0.3-0.3
			c0.2-0.1,0.3-0.2,0.4-0.3c0.1-0.1,0.2-0.3,0.2-0.7h-0.4v-0.4h0.9v-0.4h-0.4c-0.1,0.1-0.1,0.2-0.2,0.4c-0.1-0.1-0.2-0.1-0.4-0.2
			c0.2-0.3,0.3-0.6,0.4-0.9l0.4,0.1c0,0.1-0.1,0.2-0.1,0.3h0.3v-0.5h0.4v0.5h0.7v0.4h-0.7v0.4h0.8v0.4h-0.6v0.7c0,0.1,0,0.1,0.1,0.1
			h0c0.1,0,0.1,0,0.1-0.1C569.5,631.7,569.5,631.6,569.6,631.3L569.6,631.3z M567.3,629.4l-0.2,0.3c0.1,0.1,0.3,0.2,0.5,0.4l0.3-0.3
			C567.6,629.6,567.5,629.5,567.3,629.4L567.3,629.4z M567.3,630.2l-0.3,0.3c0.2,0.1,0.3,0.3,0.5,0.4l0.3-0.3
			C567.6,630.4,567.5,630.3,567.3,630.2L567.3,630.2z M567.3,630.9c-0.1,0.4-0.2,0.8-0.3,1.1c0.1,0,0.3,0.1,0.4,0.1l0.3-1.1
			C567.6,631,567.5,631,567.3,630.9L567.3,630.9z M570.2,631h1.3v-0.4h-1.1v-0.4h1.1v-0.3l-1,0c0-0.1-0.1-0.2-0.1-0.4
			c1.1,0,1.9,0,2.4-0.1l0.1,0.4l-1,0v0.4h1v0.4h-1v0.4h1.2v0.4h-1.2v0.4c0,0.1,0,0.2-0.1,0.2c0,0.1-0.1,0.1-0.2,0.2
			c-0.1,0-0.1,0.1-0.2,0.1c0,0-0.3,0-0.6,0c0-0.2-0.1-0.3-0.1-0.4c0.2,0,0.4,0,0.5,0c0.1,0,0.2-0.1,0.2-0.2v-0.2h-1.3V631L570.2,631
			z M573.8,629.5l0.4-0.1c0.1,0.1,0.2,0.3,0.3,0.5l-0.4,0.2C574,629.8,573.9,629.6,573.8,629.5L573.8,629.5z M576.1,631.7
			c0,0.1,0,0.3-0.1,0.3c0,0.1-0.1,0.1-0.2,0.2s-0.3,0-0.7,0c0-0.1-0.1-0.3-0.1-0.4c0.1,0,0.3,0,0.5,0c0.1,0,0.2-0.1,0.2-0.2v-1.8
			h-1.2v-0.4h1.6V631.7L576.1,631.7z M573.5,629.7v2.5h0.4v-2.5H573.5L573.5,629.7z M574.1,630.1v1.7h0.4v-0.2h0.9v-1.5H574.1
			L574.1,630.1z M575.1,630.4h-0.6v0.3h0.6V630.4L575.1,630.4z M575.1,631.3V631h-0.6v0.3H575.1z"/>
	</g>
	<g>
		<path class="st2" d="M445.3,896.7c-3.1-4.6-8.9-14.1-8.7-19s4.4-8.9,9.5-8.7c5.1,0.1,9.1,4.3,9,9.2
			C454.9,883.1,447.8,893.7,445.3,896.7z"/>
		<path class="st1" d="M443.1,885.8h0.4v-0.3c-0.1,0-0.2,0-0.3,0c0-0.1,0-0.3-0.1-0.4c0.3,0,0.7-0.1,1.1-0.1l0.1,0.4
			c-0.1,0-0.2,0-0.4,0.1v0.4h0.4v0.3h-0.4v0.3l0.1-0.1c0.1,0.1,0.2,0.2,0.4,0.3v-1.6h1.5v2.3h0.2v0.4H444v-0.4h0.3v-0.6L444,887
			c-0.1-0.1-0.1-0.2-0.2-0.3v1.1h-0.4v-1.1c-0.1,0.2-0.2,0.4-0.3,0.6c0-0.2-0.1-0.3-0.1-0.5c0.1-0.2,0.2-0.4,0.3-0.7h-0.3V885.8
			L443.1,885.8z M445.4,885.4h-0.7v0.4h0.7V885.4L445.4,885.4z M444.7,886.6h0.7v-0.4h-0.7V886.6L444.7,886.6z M444.7,887.4h0.7
			v-0.4h-0.7V887.4L444.7,887.4z M446.2,886.9h1.3v-0.3h-1v-0.3c0.1-0.2,0.2-0.4,0.3-0.6h-0.5v-0.4h0.7c0.1-0.1,0.1-0.2,0.1-0.4
			l0.4,0.1l-0.1,0.3h1.5v0.4h-1.7c-0.1,0.2-0.2,0.4-0.3,0.6h0.6v-0.5h0.4v0.5h0.8v0.4H448v0.3h1.1v0.4H448v0.6h-0.4v-0.6h-1.3V886.9
			z"/>
		<g>
			<circle class="st3" cx="441.1" cy="879.7" r="1.9"/>
			<circle class="st3" cx="441.2" cy="879.8" r="0.9"/>
			<polygon class="st3" points="442.4,880 441.7,880 440.6,879.5 440.5,879.7 441.6,880.2 442.4,880.2 442.4,880.5 445,880.5 
				444.9,879.6 442.4,879.7 			"/>
			<path class="st3" d="M445,877.4l0-1l-3.2-0.6l-0.4,0.6l-1.5,0l0.3,0.7l-1.4,1.6l0.1,0c0,0,1.1-1,1.3-1c0.2-0.1,0.5,0,0.6,0.1
				c0.1,0.2,1.6,0.5,1.6,0.5l0.4,1c0,0,0-0.3,0.1-0.2c0.2,0.1,0.5,0.3,0.5,0.3l1.7,0l0,1l2,0l0.6-2c0,0,0-0.2,0.4-0.6
				c0.4-0.3,0.6-0.4,0.6-0.4l0.8,0c0,0,0.1-0.5-0.1-0.9c-0.2-0.4-0.6-1-0.6-1l0-0.1l0.3,0c0,0,0-0.4-0.2-0.4c-0.2,0-1.7,0-1.7,0
				l0,0.4l-0.3,0l0-0.2h-0.1l0,0.2l-0.9,0l0,0.4l0.9,0l0,0.1h0.1l0-0.2l0.3,0l0.2,1.5c0,0-0.6,0.6-0.8,1.1c-0.2,0.5-0.2,0.7-0.2,0.7
				l-1.2,0c0,0-0.7-0.6-0.6-1C444.6,877.3,445,877.4,445,877.4z"/>
			<polygon class="st3" points="447.7,874.7 447.4,873.7 447.5,873.6 447.9,874.7 448.7,873.5 448.9,873.6 448.1,874.9 			"/>
			<path class="st3" d="M447.3,873c0.2,0,0.4,0.2,0.4,0.4c0,0.2-0.2,0.4-0.4,0.4c-0.2,0-0.4-0.2-0.4-0.4
				C446.9,873.1,447.1,873,447.3,873z"/>
			<circle class="st3" cx="448.9" cy="873.3" r="0.4"/>
			<circle class="st3" cx="449.1" cy="879.6" r="1.9"/>
			<path class="st3" d="M449.1,878.7c0.5,0,0.9,0.4,0.9,0.9c0,0.5-0.4,0.9-0.9,0.9c-0.5,0-0.9-0.4-0.9-0.9
				C448.2,879.1,448.6,878.7,449.1,878.7z"/>
			<polygon class="st3" points="448,877.4 448.8,879.7 449.2,879.5 448.4,877 			"/>
			<path class="st3" d="M445,877.4l0-1l-3.2-0.6l-0.4,0.6l-1.5,0l0.3,0.7l-1.4,1.6l0.1,0c0,0,1.1-1,1.3-1c0.2-0.1,0.5,0,0.6,0.1
				c0.1,0.2,1.6,0.5,1.6,0.5l0.4,1c0,0,0-0.3,0.1-0.2c0.2,0.1,0.5,0.3,0.5,0.3l1.7,0l0,1l2,0l0.6-2c0,0,0-0.2,0.4-0.6
				c0.4-0.3,0.6-0.4,0.6-0.4l0.8,0c0,0,0.1-0.5-0.1-0.9c-0.2-0.4-0.6-1-0.6-1l0-0.1l0.3,0c0,0,0-0.4-0.2-0.4c-0.2,0-1.7,0-1.7,0
				l0,0.4l-0.3,0l0-0.2h-0.1l0,0.2l-0.9,0l0,0.4l0.9,0l0,0.1h0.1l0-0.2l0.3,0l0.2,1.5c0,0-0.6,0.6-0.8,1.1c-0.2,0.5-0.2,0.7-0.2,0.7
				l-1.2,0c0,0-0.7-0.6-0.6-1C444.6,877.3,445,877.4,445,877.4z"/>
		</g>
	</g>
	<g>
		<path class="st2" d="M467.7,856.7c-3.1-4.6-8.9-14.1-8.7-19c0.1-5,4.4-8.9,9.5-8.7c5.1,0.1,9.1,4.3,9,9.2
			C477.3,843.1,470.2,853.7,467.7,856.7z"/>
		<g>
			
				<rect x="461.4" y="838.9" transform="matrix(-0.9998 2.076301e-002 -2.076301e-002 -0.9998 953.1851 1668.8574)" class="st3" width="13" height="1"/>
			<g>
				<circle class="st3" cx="465.3" cy="834" r="0.9"/>
				<g>
					<circle class="st3" cx="471.8" cy="833.9" r="0.9"/>
					<path class="st3" d="M462.2,839l1.1-3.2c0,0,0.2-0.6,0.7-0.6c0.6,0,2.7-0.1,2.7-0.1c0,0,0.4,0.3,0.4,0.7c0,0.4,0.2,0.6,0.2,0.6
						s0.6-1,0.9-1.1c0.3-0.1,0.7,0.3,0.7,0.5c0,0.2-0.2,0.4-0.3,0.6c-0.2,0.2-1,1.3-1,1.3s-0.4,0.2-0.6,0c-0.2-0.2-0.5-1.3-0.5-1.3
						s-0.1,0-0.1,0.1c0,0.2,0.8,2.2,0.8,2.2l-3.8,0.1l0.8-2.4c0,0-0.1-0.1-0.1,0c0,0.1-0.8,2.3-0.8,2.3L462.2,839z"/>
					<path class="st3" d="M467.8,838.3l0.6,0.6l2.4-2.9l0.1,2.8l0.1,5.1l0.9,0l-0.1-4.3l0.2,0.1l0.1,4.2l0.9,0l-0.1-4.3l0.9-0.9
						l-0.1-3c0,0,0-0.7-0.5-0.7c-0.6,0-2.9,0.1-2.9,0.1L467.8,838.3z"/>
				</g>
			</g>
		</g>
		<path class="st1" d="M466.6,845.4l0,0.3c-0.1,0.3-0.2,0.5-0.3,0.7c0.1,0.1,0.2,0.2,0.4,0.2c-0.1,0.1-0.1,0.2-0.2,0.4
			c-0.1-0.1-0.3-0.2-0.4-0.3c-0.1,0.1-0.2,0.2-0.4,0.3c0-0.1-0.1-0.2-0.2-0.3l0,0.3l-0.3,0l-0.1-2.5l1.4,0c0,0.3,0,0.4,0,0.5
			c0,0.1,0,0.1-0.1,0.2s-0.1,0.1-0.2,0.1s-0.2,0-0.5,0c0-0.1,0-0.2-0.1-0.3c0.2,0,0.3,0,0.3,0c0,0,0.1,0,0.1,0c0,0,0-0.1,0-0.2
			l-0.6,0l0,0.6L466.6,845.4L466.6,845.4z M465.9,845.7c0.1,0.1,0.1,0.3,0.2,0.4c0.1-0.1,0.1-0.3,0.2-0.4l-0.7,0l0,0.9
			c0.1-0.1,0.2-0.1,0.3-0.2c-0.1-0.2-0.2-0.3-0.3-0.5L465.9,845.7L465.9,845.7z M464.4,847c-0.1-0.1-0.2-0.2-0.2-0.3
			c0.1-0.1,0.1-0.3,0.1-0.5c0-0.2,0-0.4,0-0.8l0-0.9l0.9,0l0,2.1c0,0.1,0,0.2-0.1,0.2c-0.1,0.1-0.2,0.1-0.4,0.1
			c0-0.1-0.1-0.2-0.1-0.4c0.1,0,0.1,0,0.2,0c0.1,0,0.1-0.1,0.1-0.2l0-0.3l-0.2,0C464.6,846.5,464.5,846.8,464.4,847L464.4,847z
			 M464.8,844.8l-0.2,0l0,0.3l0.2,0L464.8,844.8L464.8,844.8z M464.6,845.8l0.2,0l0-0.3l-0.2,0C464.6,845.6,464.6,845.7,464.6,845.8
			L464.6,845.8z M469.3,844.5l0,0.3c-0.2,0.2-0.4,0.3-0.6,0.4c0.2,0,0.5,0.1,0.8,0.1c0,0.1-0.1,0.3-0.1,0.4c-0.4,0-0.8-0.1-1.2-0.2
			c-0.3,0.1-0.7,0.2-1.2,0.3c0-0.1-0.1-0.2-0.1-0.3c0.3,0,0.6-0.1,0.9-0.2c-0.1-0.1-0.2-0.2-0.3-0.2c-0.1,0.1-0.2,0.2-0.3,0.2
			c-0.1-0.1-0.1-0.2-0.2-0.3c0.3-0.2,0.6-0.4,0.7-0.7l0.4,0c0,0.1-0.1,0.2-0.2,0.2L469.3,844.5L469.3,844.5z M468.3,845.1
			c0.2-0.1,0.4-0.2,0.5-0.3l-1,0C467.9,844.9,468.1,845,468.3,845.1L468.3,845.1z M467.9,845.6c0,0.1,0,0.2,0,0.2l-0.8,0l0,0.3
			l0.7,0c-0.1,0.2-0.4,0.4-0.8,0.5c0.1,0.1,0.2,0.2,0.3,0.3c0.5-0.2,0.8-0.4,0.9-0.8l0.8,0c0,0.1,0,0.2,0,0.3c0,0,0,0.1-0.1,0.1
			c0,0-0.1,0-0.2,0c-0.1,0-0.3,0-0.5,0c0,0.1,0.1,0.3,0.1,0.4c0.1,0,0.2,0,0.3,0c0.3,0,0.4,0,0.5-0.1c0.1,0,0.2-0.1,0.2-0.2
			c0-0.1,0.1-0.1,0.1-0.2l0-0.6l-1.1,0c0-0.1,0-0.2,0-0.2L467.9,845.6L467.9,845.6z M471.7,844.5c0.3,0.3,0.5,0.5,0.8,0.8l-0.3,0.3
			l-0.2-0.2c-0.8,0-1.4,0.1-2,0.1l-0.1-0.3c0.3-0.2,0.7-0.5,1-0.9l0.3,0.2c-0.2,0.2-0.5,0.5-0.8,0.7l1.3-0.1l-0.3-0.3L471.7,844.5
			L471.7,844.5z M470.1,846.8l0-1.2l2,0l0,1.2l-0.4,0l0-0.2l-1.3,0l0,0.2L470.1,846.8L470.1,846.8z M471.8,845.9l-1.3,0l0,0.4l1.3,0
			L471.8,845.9z"/>
	</g>
	<g>
		<path class="st2" d="M414.5,959.7c-3.1-4.6-8.9-14.1-8.7-19c0.1-5,4.4-8.8,9.5-8.7c5.1,0.2,9.1,4.3,9,9.2
			C424.1,946.2,416.9,956.7,414.5,959.7z"/>
		<g>
			<g>
				<path class="st3" d="M411.5,934.8c0.6,0,1.2,0.5,1.2,1.1c0,0.6-0.5,1.2-1.1,1.2c-0.6,0-1.2-0.5-1.2-1.1
					C410.3,935.3,410.8,934.8,411.5,934.8z"/>
				<path class="st3" d="M411.5,937.3l-1.5,0c0,0-0.7-0.1-0.7,0.6c0,0.6,0.1,3.4,0.1,3.4s0,0.7,0.4,0.7c0.4,0,0.5-0.3,0.5-0.7
					c0-0.4,0-1.8,0-1.8s0-0.2,0.1-0.2c0.1-0.1,0.1,0.1,0.1,0.2c0,0.2,0.1,7.1,0.1,7.1s0.1,0.5,0.7,0.4c0.6-0.1,0.5-0.4,0.5-1.1
					c0-0.6-0.2-8.1-0.2-8.1L411.5,937.3z"/>
				<path class="st3" d="M411.3,937.2l1.8,0c0,0,0.8-0.1,0.8,0.5c0,0.6,0.1,3.4,0.1,3.4s0,0.7-0.4,0.7c-0.4,0-0.5-0.3-0.5-0.7
					c0-0.4,0-1.8,0-1.8s0-0.2-0.1-0.2s-0.1,0.1-0.1,0.2c0,0.2,0.1,7.1,0.1,7.1s-0.1,0.5-0.8,0.4s-0.6-0.4-0.6-1
					c0-0.6-0.2-8.1-0.2-8.1L411.3,937.2z"/>
				<rect x="411.5" y="943.2" class="st0" width="0" height="3.6"/>
			</g>
			<g>
				<path class="st3" d="M417.3,934.7c0.6,0,1.1,0.5,1.2,1.1c0,0.6-0.5,1.1-1.1,1.2c-0.6,0-1.1-0.5-1.2-1.1
					C416.2,935.2,416.7,934.7,417.3,934.7z"/>
				<path class="st3" d="M417.2,937.2c0,0-1.2-0.2-1.6,0.5c-0.4,0.7-1.1,3.3-1.1,3.3s-0.1,0.8,0.6,0.6c0.6-0.2,0.7-2.3,1-2.3
					c0.3,0-1,3.6-1,3.6l1.3,0l0.1,3.3c0,0,0,0.8,0.5,0.7c0.5,0,0.5-0.6,0.5-0.8C417.4,946,417.2,937.2,417.2,937.2z"/>
				<path class="st3" d="M417.1,937.2c0,0,1.4-0.2,2,0.5c0.5,0.7,1.6,3.3,1.6,3.3s0.1,0.8-0.7,0.6c-0.8-0.2-1-2.3-1.4-2.3
					c-0.4,0,1.4,3.5,1.4,3.5l-1.6,0l0.1,3.3c0,0,0.1,0.8-0.6,0.8c-0.6,0-0.6-0.6-0.6-0.8C417.3,946,417.1,937.2,417.1,937.2z"/>
				<rect x="417.4" y="942.9" class="st0" width="0" height="3.8"/>
			</g>
		</g>
		<path class="st1" d="M413.1,950.6c0.1,0.1,0.2,0.1,0.4,0.2c0,0.3-0.1,0.6-0.2,0.6c-0.1,0.1-0.2,0.1-0.3,0.1h-0.2
			c-0.2,0-0.4-0.1-0.4-0.4v-0.8h-0.2c0,0.4-0.1,0.7-0.2,0.8c-0.1,0.2-0.3,0.3-0.5,0.4c-0.1-0.1-0.2-0.2-0.3-0.3
			c0.2-0.1,0.3-0.2,0.4-0.3c0.1-0.1,0.2-0.3,0.2-0.7h-0.4v-0.4h0.9v-0.4h-0.4c-0.1,0.1-0.1,0.3-0.2,0.4c-0.1-0.1-0.2-0.1-0.4-0.2
			c0.2-0.3,0.3-0.6,0.4-0.9l0.4,0.1c0,0.1-0.1,0.2-0.1,0.3h0.3v-0.5h0.4v0.5h0.7v0.4h-0.7v0.4h0.8v0.4h-0.6v0.7c0,0.1,0,0.1,0.1,0.1
			h0c0.1,0,0.1,0,0.1-0.1C413.1,951,413.1,950.8,413.1,950.6L413.1,950.6z M410.8,948.7l-0.2,0.3c0.1,0.1,0.3,0.3,0.5,0.4l0.3-0.3
			C411.1,948.9,411,948.8,410.8,948.7L410.8,948.7z M410.8,949.4l-0.3,0.3c0.2,0.1,0.3,0.3,0.5,0.4l0.3-0.3
			C411.1,949.7,411,949.6,410.8,949.4L410.8,949.4z M410.8,950.2c-0.1,0.4-0.2,0.8-0.3,1.1c0.1,0,0.3,0.1,0.4,0.1l0.3-1.1
			C411.1,950.3,411,950.3,410.8,950.2L410.8,950.2z M413.7,950.2h1.3v-0.3h-1.1v-0.4h1.1v-0.3l-1,0c0-0.1-0.1-0.2-0.1-0.4
			c1.1,0,1.9,0,2.4-0.1l0.1,0.4l-1,0v0.4h1v0.4h-1v0.3h1.2v0.4h-1.2v0.4c0,0.1,0,0.2-0.1,0.2c0,0.1-0.1,0.1-0.2,0.2
			c-0.1,0-0.1,0.1-0.2,0.1c0,0-0.3,0-0.6,0c0-0.2-0.1-0.3-0.1-0.4c0.2,0,0.4,0,0.5,0c0.1,0,0.2-0.1,0.2-0.2v-0.2h-1.3V950.2
			L413.7,950.2z M417.3,948.8l0.4-0.1c0.1,0.1,0.2,0.3,0.3,0.5l-0.4,0.2C417.5,949.1,417.4,948.9,417.3,948.8L417.3,948.8z
			 M419.7,951c0,0.1,0,0.3-0.1,0.3c0,0.1-0.1,0.1-0.2,0.2c-0.1,0-0.3,0-0.7,0c0-0.1-0.1-0.3-0.1-0.4c0.1,0,0.3,0,0.5,0
			c0.1,0,0.2-0.1,0.2-0.2v-1.8h-1.2v-0.4h1.6V951L419.7,951z M417,949v2.5h0.4V949H417L417,949z M417.7,949.4v1.7h0.4v-0.2h0.9v-1.5
			H417.7L417.7,949.4z M418.6,949.7H418v0.3h0.6V949.7L418.6,949.7z M418.6,950.6v-0.3H418v0.3H418.6z"/>
	</g>
	<g>
		<path class="st2" d="M776.8,443.2c-3.1-4.6-8.9-14.1-8.7-19c0.1-5,4.4-8.9,9.5-8.7c5.1,0.1,9.1,4.3,9,9.2
			C786.4,429.6,779.3,440.2,776.8,443.2z"/>
		<g>
			
				<rect x="770.5" y="425.4" transform="matrix(-0.9998 2.083809e-002 -2.083809e-002 -0.9998 1562.7683 835.4696)" class="st3" width="13" height="1"/>
			<g>
				<path class="st3" d="M774.4,419.6c0.5,0,0.9,0.4,1,0.9c0,0.5-0.4,0.9-0.9,1s-0.9-0.4-1-0.9C773.5,420,773.9,419.6,774.4,419.6z"
					/>
				<g>
					<circle class="st3" cx="780.9" cy="420.4" r="0.9"/>
					<path class="st3" d="M771.3,425.5l1.1-3.2c0,0,0.2-0.6,0.7-0.6c0.6,0,2.7-0.1,2.7-0.1c0,0,0.4,0.3,0.4,0.7
						c0,0.3,0.2,0.6,0.2,0.6s0.6-1,0.9-1.1c0.3-0.1,0.7,0.3,0.7,0.5c0,0.2-0.2,0.4-0.3,0.6c-0.2,0.2-1,1.3-1,1.3s-0.4,0.2-0.6,0
						c-0.2-0.2-0.5-1.3-0.5-1.3s-0.1,0-0.1,0.1c0,0.2,0.8,2.2,0.8,2.2l-3.8,0.1l0.8-2.4c0,0-0.1-0.1-0.1,0c0,0.1-0.8,2.3-0.8,2.3
						L771.3,425.5z"/>
					<path class="st3" d="M776.9,424.8l0.6,0.6l2.4-2.9l0.1,2.8l0.1,5.1l0.9,0l-0.1-4.3l0.2,0.1l0.1,4.2l0.9,0l-0.1-4.3l0.9-0.9
						l-0.1-3c0,0,0-0.7-0.5-0.7c-0.6,0-2.9,0.1-2.9,0.1L776.9,424.8z"/>
				</g>
			</g>
		</g>
		<path class="st1" d="M775.7,431.9l0,0.3c-0.1,0.3-0.2,0.5-0.3,0.7c0.1,0.1,0.2,0.1,0.4,0.2c-0.1,0.1-0.1,0.2-0.2,0.4
			c-0.1-0.1-0.3-0.2-0.4-0.3c-0.1,0.1-0.2,0.2-0.4,0.3c-0.1-0.1-0.1-0.2-0.2-0.3l0,0.3l-0.3,0l-0.1-2.5l1.4,0c0,0.3,0,0.4,0,0.5
			c0,0.1,0,0.1-0.1,0.2c0,0-0.1,0.1-0.2,0.1c-0.1,0-0.2,0-0.5,0c0-0.1,0-0.2-0.1-0.3c0.2,0,0.3,0,0.3,0c0.1,0,0.1,0,0.1,0
			c0,0,0-0.1,0-0.2l-0.6,0l0,0.6L775.7,431.9L775.7,431.9z M775,432.2c0.1,0.1,0.1,0.3,0.2,0.4c0.1-0.1,0.1-0.3,0.2-0.4l-0.7,0
			l0,0.9c0.1-0.1,0.2-0.1,0.3-0.2c-0.1-0.1-0.2-0.3-0.3-0.5L775,432.2L775,432.2z M773.5,433.5c-0.1-0.1-0.2-0.2-0.3-0.3
			c0.1-0.1,0.1-0.3,0.1-0.5c0-0.2,0-0.4,0-0.8l0-0.9l0.8,0l0,2.1c0,0.1,0,0.2-0.1,0.2c0,0.1-0.2,0.1-0.4,0.1c0-0.1-0.1-0.2-0.1-0.4
			c0.1,0,0.1,0,0.2,0c0.1,0,0.1-0.1,0.1-0.2l0-0.3l-0.2,0C773.7,433,773.6,433.3,773.5,433.5L773.5,433.5z M773.9,431.3l-0.2,0
			l0,0.3l0.2,0L773.9,431.3L773.9,431.3z M773.7,432.3l0.2,0l0-0.3l-0.2,0C773.7,432.1,773.7,432.2,773.7,432.3L773.7,432.3z
			 M778.4,431l0,0.3c-0.2,0.2-0.4,0.3-0.6,0.4c0.2,0.1,0.5,0.1,0.8,0.1c-0.1,0.1-0.1,0.2-0.1,0.4c-0.4,0-0.8-0.1-1.2-0.2
			c-0.3,0.1-0.7,0.2-1.2,0.3c0-0.1-0.1-0.2-0.2-0.3c0.3,0,0.6-0.1,0.9-0.2c-0.1-0.1-0.2-0.2-0.3-0.2c-0.1,0.1-0.2,0.2-0.3,0.2
			c-0.1-0.1-0.1-0.2-0.2-0.3c0.3-0.2,0.6-0.4,0.7-0.7l0.4,0c0,0.1-0.1,0.2-0.2,0.2L778.4,431L778.4,431z M777.4,431.6
			c0.2-0.1,0.4-0.2,0.5-0.3l-1,0C777,431.4,777.2,431.5,777.4,431.6L777.4,431.6z M777,432.1c0,0.1,0,0.2,0,0.2l-0.8,0l0,0.3l0.7,0
			c-0.1,0.2-0.4,0.4-0.8,0.5c0.1,0.1,0.2,0.2,0.3,0.3c0.5-0.2,0.8-0.4,0.9-0.8l0.8,0c0,0.1,0,0.2,0,0.3c0,0,0,0.1-0.1,0.1
			c0,0-0.1,0-0.2,0c-0.1,0-0.3,0-0.5,0c0,0.1,0.1,0.2,0.1,0.4c0.1,0,0.2,0,0.3,0c0.3,0,0.4,0,0.5-0.1c0.1,0,0.2-0.1,0.2-0.1
			c0-0.1,0.1-0.2,0.1-0.2l0-0.6l-1.1,0c0-0.1,0-0.2,0-0.2L777,432.1L777,432.1z M780.8,431c0.3,0.3,0.5,0.5,0.8,0.8l-0.3,0.3
			l-0.2-0.2c-0.7,0-1.4,0.1-2,0.1l-0.1-0.3c0.3-0.2,0.7-0.5,1-0.9l0.3,0.2c-0.2,0.2-0.5,0.5-0.8,0.7l1.3-0.1l-0.3-0.3L780.8,431
			L780.8,431z M779.2,433.3l0-1.2l2,0l0,1.2l-0.4,0l0-0.2l-1.3,0l0,0.2L779.2,433.3L779.2,433.3z M780.9,432.4l-1.3,0l0,0.4l1.3,0
			L780.9,432.4z"/>
	</g>
	<g>
		<path class="st2" d="M878.8,354.8c-3.1-4.6-8.9-14.1-8.7-19c0.1-5,4.4-8.8,9.5-8.7c5.1,0.1,9.1,4.3,9,9.2
			C888.4,341.3,881.3,351.8,878.8,354.8z"/>
		<g>
			<polygon class="st3" points="873,338.2 879.2,334.9 884.8,338.2 			"/>
			<rect x="876.2" y="334.3" class="st3" width="1.1" height="5.9"/>
			<rect x="880.3" y="334.4" class="st3" width="1.1" height="5.9"/>
			<rect x="873.7" y="338.1" class="st3" width="1.1" height="2.9"/>
			<rect x="882.9" y="338.2" class="st3" width="1.1" height="2.9"/>
			<rect x="874.4" y="339.9" class="st3" width="8.9" height="1.1"/>
			<rect x="878.2" y="338.4" class="st3" width="1.1" height="2.3"/>
			<polygon class="st3" points="875.2,334.7 879.1,331.3 882.6,334.7 			"/>
		</g>
	</g>
	<g>
		<path class="st2" d="M763.2,453.3c-3.1-4.6-8.9-14.1-8.7-19c0.1-5,4.4-8.8,9.5-8.7c5.1,0.1,9.1,4.3,9,9.2
			C772.8,439.8,765.6,450.3,763.2,453.3z"/>
		<g>
			<g>
				<circle class="st3" cx="760.2" cy="429.5" r="1.2"/>
				<path class="st3" d="M760.2,430.8l-1.5,0c0,0-0.7-0.1-0.7,0.6c0,0.6,0.1,3.4,0.1,3.4s0,0.7,0.4,0.7c0.4,0,0.5-0.3,0.5-0.7
					c0-0.4,0-1.8,0-1.8s0-0.2,0.1-0.2c0.1-0.1,0.1,0.1,0.1,0.2c0,0.2,0.1,7.1,0.1,7.1s0.1,0.5,0.7,0.4c0.6-0.1,0.5-0.4,0.5-1.1
					s-0.2-8.1-0.2-8.1L760.2,430.8z"/>
				<path class="st3" d="M760,430.8l1.8,0c0,0,0.8-0.1,0.8,0.5c0,0.6,0.1,3.4,0.1,3.4s0,0.7-0.4,0.7c-0.4,0-0.5-0.3-0.5-0.7
					c0-0.4,0-1.8,0-1.8s0-0.2-0.1-0.2c-0.1-0.1-0.1,0.1-0.1,0.2c0,0.2,0.1,7.1,0.1,7.1s-0.1,0.5-0.8,0.4c-0.7-0.1-0.6-0.4-0.6-1
					c0-0.6-0.2-8.1-0.2-8.1L760,430.8z"/>
				<rect x="760.2" y="436.8" class="st0" width="0" height="3.6"/>
			</g>
			<g>
				<path class="st3" d="M766,428.3c0.6,0,1.1,0.5,1.2,1.1c0,0.6-0.5,1.1-1.1,1.2c-0.6,0-1.1-0.5-1.2-1.1
					C764.9,428.8,765.4,428.3,766,428.3z"/>
				<path class="st3" d="M765.9,430.8c0,0-1.2-0.2-1.6,0.5c-0.4,0.7-1.1,3.3-1.1,3.3s-0.1,0.8,0.6,0.6c0.6-0.2,0.7-2.3,1-2.3
					c0.3,0-1,3.6-1,3.6l1.3,0l0.1,3.3c0,0,0,0.8,0.5,0.7c0.5,0,0.5-0.6,0.5-0.8C766.1,439.5,765.9,430.8,765.9,430.8z"/>
				<path class="st3" d="M765.8,430.8c0,0,1.4-0.2,2,0.5c0.5,0.7,1.6,3.3,1.6,3.3s0.1,0.8-0.7,0.6c-0.8-0.2-1-2.3-1.4-2.3
					c-0.4,0,1.4,3.5,1.4,3.5l-1.6,0l0.1,3.3c0,0,0.1,0.8-0.6,0.8c-0.6,0-0.6-0.6-0.6-0.8C765.9,439.5,765.8,430.8,765.8,430.8z"/>
				<rect x="766" y="436.5" class="st0" width="0" height="3.8"/>
			</g>
		</g>
		<path class="st1" d="M761.8,444.2c0.1,0.1,0.2,0.1,0.4,0.2c0,0.3-0.1,0.5-0.2,0.6c-0.1,0.1-0.2,0.1-0.3,0.1h-0.2
			c-0.2,0-0.4-0.1-0.4-0.4v-0.8h-0.2c0,0.4-0.1,0.7-0.2,0.8c-0.1,0.2-0.3,0.3-0.5,0.4c-0.1-0.1-0.2-0.2-0.3-0.3
			c0.2-0.1,0.3-0.2,0.4-0.3c0.1-0.1,0.2-0.3,0.2-0.7H760v-0.4h0.9v-0.4h-0.4c-0.1,0.1-0.1,0.2-0.2,0.4c-0.1-0.1-0.2-0.1-0.4-0.2
			c0.2-0.3,0.3-0.6,0.4-0.9l0.4,0.1c0,0.1-0.1,0.2-0.1,0.3h0.3v-0.5h0.4v0.5h0.7v0.4h-0.7v0.4h0.8v0.4h-0.6v0.7c0,0.1,0,0.1,0.1,0.1
			h0c0.1,0,0.1,0,0.1-0.1C761.7,444.6,761.8,444.4,761.8,444.2L761.8,444.2z M759.5,442.3l-0.2,0.3c0.1,0.1,0.3,0.2,0.5,0.4l0.3-0.3
			C759.8,442.5,759.7,442.4,759.5,442.3L759.5,442.3z M759.5,443l-0.3,0.3c0.2,0.1,0.3,0.3,0.5,0.4l0.3-0.3
			C759.8,443.3,759.7,443.2,759.5,443L759.5,443z M759.5,443.8c-0.1,0.4-0.2,0.8-0.3,1.1c0.1,0,0.3,0.1,0.4,0.1l0.3-1.1
			C759.8,443.9,759.7,443.9,759.5,443.8L759.5,443.8z M762.4,443.8h1.3v-0.4h-1.1v-0.4h1.1v-0.3l-1,0c0-0.1-0.1-0.2-0.1-0.4
			c1.1,0,1.9,0,2.4-0.1l0.1,0.4l-1,0v0.4h1v0.4h-1v0.4h1.2v0.4h-1.2v0.4c0,0.1,0,0.2-0.1,0.2s-0.1,0.1-0.2,0.2
			c-0.1,0-0.1,0.1-0.2,0.1c-0.1,0-0.3,0-0.6,0c0-0.2-0.1-0.3-0.1-0.4c0.2,0,0.4,0,0.5,0c0.1,0,0.2-0.1,0.2-0.2v-0.2h-1.3V443.8
			L762.4,443.8z M766,442.4l0.4-0.1c0.1,0.1,0.2,0.3,0.3,0.5l-0.4,0.2C766.2,442.7,766.1,442.5,766,442.4L766,442.4z M768.3,444.6
			c0,0.1,0,0.3-0.1,0.3c0,0.1-0.1,0.1-0.2,0.2c-0.1,0-0.3,0-0.7,0c0-0.1-0.1-0.3-0.1-0.4c0.1,0,0.3,0,0.5,0c0.1,0,0.2-0.1,0.2-0.2
			v-1.8h-1.2v-0.4h1.6V444.6L768.3,444.6z M765.7,442.6v2.5h0.4v-2.5H765.7L765.7,442.6z M766.3,443v1.7h0.4v-0.2h0.9V443H766.3
			L766.3,443z M767.3,443.3h-0.6v0.3h0.6V443.3L767.3,443.3z M767.3,444.2v-0.3h-0.6v0.3H767.3z"/>
	</g>
	<g>
		<path class="st2" d="M764.1,480.1c-3.1-4.6-8.9-14.1-8.7-19c0.1-5,4.4-8.8,9.5-8.7c5.1,0.1,9.1,4.3,9,9.2
			C773.7,466.6,766.6,477.1,764.1,480.1z"/>
		<path class="st1" d="M761.8,469.2h0.4v-0.3c-0.1,0-0.2,0-0.3,0c0-0.1,0-0.3-0.1-0.4c0.3,0,0.7-0.1,1.1-0.1l0.1,0.4
			c-0.1,0-0.2,0-0.4,0.1v0.4h0.4v0.3h-0.4v0.3l0.1-0.1c0.1,0.1,0.2,0.2,0.4,0.3v-1.6h1.5v2.3h0.2v0.4h-1.9v-0.4h0.3v-0.6l-0.2,0.2
			c-0.1-0.1-0.1-0.2-0.2-0.3v1.1h-0.4v-1.1c-0.1,0.2-0.2,0.4-0.3,0.6c0-0.2-0.1-0.3-0.1-0.5c0.1-0.2,0.2-0.4,0.3-0.7h-0.3V469.2
			L761.8,469.2z M764.2,468.8h-0.7v0.4h0.7V468.8L764.2,468.8z M763.5,470h0.7v-0.4h-0.7V470L763.5,470z M763.5,470.8h0.7v-0.4h-0.7
			V470.8L763.5,470.8z M765,470.3h1.3V470h-1v-0.3c0.1-0.2,0.2-0.4,0.3-0.6h-0.5v-0.4h0.7c0.1-0.1,0.1-0.2,0.1-0.4l0.4,0.1l-0.1,0.3
			h1.5v0.4h-1.7c-0.1,0.2-0.2,0.4-0.3,0.6h0.6v-0.5h0.4v0.5h0.8v0.4h-0.8v0.3h1.1v0.4h-1.1v0.6h-0.4v-0.6H765V470.3z"/>
		<g>
			<path class="st3" d="M759.9,461.3c1.1,0,1.9,0.8,2,1.9s-0.8,1.9-1.9,2c-1.1,0-1.9-0.8-2-1.9C758,462.1,758.8,461.3,759.9,461.3z"
				/>
			<circle class="st3" cx="760" cy="463.2" r="0.9"/>
			<polygon class="st3" points="761.2,463.4 760.5,463.4 759.4,462.9 759.3,463.1 760.4,463.6 761.2,463.6 761.2,464 763.7,463.9 
				763.7,463 761.2,463.1 			"/>
			<path class="st3" d="M763.8,460.8l0-1l-3.2-0.6l-0.4,0.6l-1.5,0l0.3,0.7l-1.4,1.6l0.1,0c0,0,1.1-1,1.3-1c0.2-0.1,0.5,0,0.6,0.1
				c0.1,0.2,1.6,0.5,1.6,0.5l0.4,1c0,0,0-0.3,0.1-0.2c0.2,0.1,0.5,0.3,0.5,0.3l1.7,0l0,1l2,0l0.6-2c0,0,0-0.2,0.4-0.6
				c0.4-0.3,0.6-0.4,0.6-0.4l0.8,0c0,0,0.1-0.5-0.1-0.9c-0.3-0.4-0.6-1-0.6-1l0-0.1l0.3,0c0,0,0-0.4-0.2-0.4c-0.2,0-1.7,0-1.7,0
				l0,0.4l-0.3,0l0-0.2l-0.1,0l0,0.2l-0.9,0l0,0.4l0.9,0l0,0.1l0.1,0l0-0.2l0.3,0l0.2,1.5c0,0-0.6,0.6-0.8,1.1
				c-0.2,0.5-0.2,0.7-0.2,0.7l-1.2,0c0,0-0.7-0.6-0.6-1C763.4,460.7,763.8,460.8,763.8,460.8z"/>
			<polygon class="st3" points="766.5,458.1 766.2,457.1 766.3,457 766.7,458.1 767.5,456.9 767.7,457.1 766.9,458.3 			"/>
			<path class="st3" d="M766.1,456.4c0.2,0,0.4,0.2,0.4,0.4c0,0.2-0.2,0.4-0.4,0.4c-0.2,0-0.4-0.2-0.4-0.4
				C765.7,456.6,765.9,456.4,766.1,456.4z"/>
			<path class="st3" d="M767.7,456.3c0.2,0,0.4,0.2,0.4,0.4c0,0.2-0.2,0.4-0.4,0.4c-0.2,0-0.4-0.2-0.4-0.4
				C767.3,456.5,767.5,456.3,767.7,456.3z"/>
			<path class="st3" d="M767.9,461.1c1.1,0,1.9,0.8,2,1.9c0,1.1-0.8,1.9-1.9,2c-1.1,0-1.9-0.8-2-1.9
				C766,462,766.8,461.1,767.9,461.1z"/>
			<path class="st3" d="M767.9,462.1c0.5,0,0.9,0.4,0.9,0.9c0,0.5-0.4,0.9-0.9,0.9c-0.5,0-0.9-0.4-0.9-0.9
				C767,462.6,767.4,462.1,767.9,462.1z"/>
			<polygon class="st3" points="766.8,460.8 767.6,463.1 767.9,462.9 767.2,460.4 			"/>
			<path class="st3" d="M763.8,460.8l0-1l-3.2-0.6l-0.4,0.6l-1.5,0l0.3,0.7l-1.4,1.6l0.1,0c0,0,1.1-1,1.3-1c0.2-0.1,0.5,0,0.6,0.1
				c0.1,0.2,1.6,0.5,1.6,0.5l0.4,1c0,0,0-0.3,0.1-0.2c0.2,0.1,0.5,0.3,0.5,0.3l1.7,0l0,1l2,0l0.6-2c0,0,0-0.2,0.4-0.6
				c0.4-0.3,0.6-0.4,0.6-0.4l0.8,0c0,0,0.1-0.5-0.1-0.9c-0.3-0.4-0.6-1-0.6-1l0-0.1l0.3,0c0,0,0-0.4-0.2-0.4c-0.2,0-1.7,0-1.7,0
				l0,0.4l-0.3,0l0-0.2l-0.1,0l0,0.2l-0.9,0l0,0.4l0.9,0l0,0.1l0.1,0l0-0.2l0.3,0l0.2,1.5c0,0-0.6,0.6-0.8,1.1
				c-0.2,0.5-0.2,0.7-0.2,0.7l-1.2,0c0,0-0.7-0.6-0.6-1C763.4,460.7,763.8,460.8,763.8,460.8z"/>
		</g>
	</g>
	<g>
		<path class="st2" d="M460.3,1579.3c-3.1-4.6-8.9-14.1-8.7-19c0.1-5,4.4-8.8,9.5-8.7c5.1,0.1,9.1,4.3,9,9.2
			C469.9,1565.7,462.8,1576.3,460.3,1579.3z"/>
		<g>
			<rect x="457.6" y="1559.9" class="st3" width="2.7" height="4.8"/>
			<rect x="461.4" y="1559.8" class="st3" width="2.7" height="4.8"/>
			<rect x="457" y="1558.3" class="st3" width="3.3" height="1.1"/>
			<rect x="461.3" y="1558.3" class="st3" width="3.3" height="1.1"/>
			<path class="st3" d="M461.3,1558.3c0,0-1.8,0.2-2.3-0.3c-0.5-0.5-0.4-1.2,0.1-1.5c0.5-0.4,1.4-0.1,1.6,0.6
				c0.1,0.7,0.2,0.9,0.2,0.9s-0.1-1.7,0.9-1.7c1-0.1,1.5,0.7,1.3,1.5C462.8,1558.6,461.3,1558.3,461.3,1558.3z"/>
			<path class="st2" d="M460.5,1557.9c0,0-0.1-1.1-0.6-1.2c-0.5,0-1.1,0.6-0.6,1C459.9,1558.1,460.5,1557.9,460.5,1557.9z"/>
			<path class="st2" d="M461.3,1557.8c0,0,0.1-1.1,0.6-1.2c0.5,0,1.1,0.6,0.6,1C461.9,1558.1,461.3,1557.8,461.3,1557.8z"/>
		</g>
	</g>
	<g>
		<path class="st2" d="M446,1582.9c-3.1-4.6-8.9-14.1-8.7-19c0.1-5,4.4-8.8,9.5-8.7c5.1,0.1,9.1,4.3,9,9.2
			C455.6,1569.4,448.5,1579.9,446,1582.9z"/>
		<g>
			<g>
				<path class="st3" d="M443,1558c0.6,0,1.2,0.5,1.2,1.1c0,0.6-0.5,1.2-1.1,1.2c-0.6,0-1.2-0.5-1.2-1.1
					C441.8,1558.5,442.3,1558,443,1558z"/>
				<path class="st3" d="M443,1560.4l-1.5,0c0,0-0.7-0.1-0.7,0.6c0,0.6,0.1,3.4,0.1,3.4s0,0.7,0.4,0.7c0.4,0,0.5-0.3,0.5-0.7
					c0-0.4,0-1.8,0-1.8s0-0.2,0.1-0.2s0.1,0.1,0.1,0.2c0,0.2,0.1,7.1,0.1,7.1s0.1,0.5,0.7,0.4c0.6-0.1,0.5-0.4,0.5-1.1
					c0-0.6-0.2-8.1-0.2-8.1L443,1560.4z"/>
				<path class="st3" d="M442.8,1560.4l1.8,0c0,0,0.8-0.1,0.8,0.5c0,0.6,0.1,3.4,0.1,3.4s0,0.7-0.4,0.7c-0.4,0-0.5-0.3-0.5-0.7
					c0-0.4,0-1.8,0-1.8s0-0.2-0.1-0.2c-0.1-0.1-0.1,0.1-0.1,0.2c0,0.2,0.1,7.1,0.1,7.1s-0.1,0.5-0.8,0.4c-0.7-0.1-0.6-0.4-0.6-1
					c0-0.6-0.2-8.1-0.2-8.1L442.8,1560.4z"/>
				<rect x="443" y="1566.4" class="st0" width="0" height="3.6"/>
			</g>
			<g>
				<circle class="st3" cx="448.8" cy="1559" r="1.1"/>
				<path class="st3" d="M448.7,1560.4c0,0-1.2-0.2-1.6,0.5c-0.4,0.7-1.1,3.3-1.1,3.3s-0.1,0.8,0.6,0.6c0.6-0.2,0.7-2.3,1-2.3
					c0.3,0-1,3.6-1,3.6l1.3,0l0.1,3.3c0,0,0,0.8,0.5,0.7c0.5,0,0.5-0.6,0.5-0.8S448.7,1560.4,448.7,1560.4z"/>
				<path class="st3" d="M448.6,1560.4c0,0,1.4-0.2,2,0.5s1.6,3.3,1.6,3.3s0.1,0.8-0.7,0.6c-0.8-0.2-1-2.3-1.4-2.3
					c-0.4,0,1.4,3.5,1.4,3.5l-1.6,0l0.1,3.3c0,0,0.1,0.8-0.6,0.8c-0.6,0-0.6-0.6-0.6-0.8C448.8,1569.2,448.6,1560.4,448.6,1560.4z"
					/>
				<rect x="448.9" y="1566.1" class="st0" width="0" height="3.8"/>
			</g>
		</g>
		<path class="st1" d="M444.6,1573.8c0.1,0.1,0.2,0.1,0.4,0.2c0,0.3-0.1,0.6-0.2,0.6c-0.1,0.1-0.2,0.1-0.3,0.1h-0.2
			c-0.2,0-0.4-0.1-0.4-0.4v-0.8h-0.2c0,0.4-0.1,0.7-0.2,0.8c-0.1,0.2-0.3,0.3-0.5,0.4c-0.1-0.1-0.2-0.2-0.3-0.3
			c0.2-0.1,0.3-0.2,0.4-0.3c0.1-0.1,0.2-0.3,0.2-0.6h-0.4v-0.4h0.9v-0.4h-0.4c-0.1,0.1-0.1,0.3-0.2,0.4c-0.1-0.1-0.2-0.1-0.4-0.1
			c0.2-0.3,0.3-0.6,0.4-0.9l0.4,0.1c0,0.1-0.1,0.2-0.1,0.3h0.3v-0.5h0.4v0.5h0.7v0.4h-0.7v0.4h0.8v0.4h-0.6v0.7c0,0.1,0,0.1,0.1,0.1
			h0c0.1,0,0.1,0,0.1-0.1C444.6,1574.2,444.6,1574,444.6,1573.8L444.6,1573.8z M442.3,1571.9l-0.2,0.3c0.1,0.1,0.3,0.2,0.5,0.4
			l0.3-0.3C442.6,1572.1,442.5,1572,442.3,1571.9L442.3,1571.9z M442.3,1572.6l-0.3,0.3c0.2,0.1,0.3,0.3,0.5,0.4l0.3-0.3
			C442.6,1572.9,442.5,1572.8,442.3,1572.6L442.3,1572.6z M442.3,1573.4c-0.1,0.4-0.2,0.8-0.3,1.1c0.1,0,0.3,0.1,0.4,0.1l0.3-1.1
			C442.6,1573.5,442.5,1573.5,442.3,1573.4L442.3,1573.4z M445.2,1573.4h1.3v-0.3h-1.1v-0.4h1.1v-0.3l-1,0c0-0.1-0.1-0.2-0.1-0.4
			c1.1,0,1.9,0,2.4-0.1l0.1,0.4l-1,0v0.4h1v0.4h-1v0.3h1.2v0.4h-1.2v0.3c0,0.1,0,0.2-0.1,0.3c0,0.1-0.1,0.1-0.2,0.2
			c-0.1,0-0.1,0.1-0.2,0.1c0,0-0.3,0-0.6,0c0-0.2-0.1-0.3-0.1-0.4c0.2,0,0.4,0,0.5,0c0.1,0,0.2-0.1,0.2-0.2v-0.2h-1.3V1573.4
			L445.2,1573.4z M448.8,1572l0.4-0.1c0.1,0.1,0.2,0.3,0.3,0.5l-0.4,0.2C449,1572.3,448.9,1572.1,448.8,1572L448.8,1572z
			 M451.2,1574.2c0,0.1,0,0.3-0.1,0.3c0,0.1-0.1,0.1-0.2,0.2c-0.1,0-0.3,0-0.7,0c0-0.1-0.1-0.3-0.1-0.4c0.1,0,0.3,0,0.5,0
			c0.1,0,0.2-0.1,0.2-0.2v-1.8h-1.2v-0.4h1.6V1574.2L451.2,1574.2z M448.5,1572.2v2.5h0.4v-2.5H448.5L448.5,1572.2z M449.2,1572.6
			v1.7h0.4v-0.2h0.9v-1.5H449.2L449.2,1572.6z M450.1,1572.9h-0.6v0.3h0.6V1572.9L450.1,1572.9z M450.1,1573.8v-0.3h-0.6v0.3H450.1z
			"/>
	</g>
	<g>
		<path class="st2" d="M464.5,1513.8c-3.1-4.6-8.9-14.1-8.7-19c0.1-4.9,4.4-8.8,9.5-8.7c5.1,0.1,9.1,4.3,9,9.2
			C474.1,1500.2,467,1510.8,464.5,1513.8z"/>
		<g>
			<path class="st1" d="M463.6,1497.4v4.1h-2.5v-11.8h4.1c2.9,0,4.4,1.2,4.4,3.7c0,1.2-0.4,2.2-1.3,2.9c-0.9,0.7-2,1.1-3.3,1H463.6z
				 M463.6,1491.7v3.8h1.1c1.5,0,2.2-0.6,2.2-1.9c0-1.3-0.7-1.9-2.2-1.9H463.6z"/>
		</g>
		<path class="st1" d="M460.5,1504.6v-0.5h2.2v0.5h-0.4v-0.2h-1.4v0.2H460.5L460.5,1504.6z M460.3,1502.7c-0.1,0.6-0.3,1-0.5,1.3
			c0,0.2,0.1,0.4,0.1,0.5c0.1-0.1,0.1-0.2,0.2-0.3v1.4h0.4v-2.2c0.1-0.2,0.1-0.4,0.2-0.6L460.3,1502.7L460.3,1502.7z M460.8,1503.3
			h1.6v0.7h-1.6V1503.3L460.8,1503.3z M462.6,1503.2h-2v-0.3h0.8c0-0.1,0-0.1-0.1-0.2l0.4-0.1c0,0.1,0.1,0.2,0.1,0.3h0.8V1503.2
			L462.6,1503.2z M462,1503.7v-0.2h-0.9v0.2H462L462,1503.7z M462.5,1504.6v0.3h-0.6v0.2c0,0.2-0.1,0.4-0.3,0.4c-0.1,0-0.3,0-0.5,0
			c0-0.1,0-0.2-0.1-0.4c0.1,0,0.2,0,0.4,0c0.1,0,0.1,0,0.1-0.2v-0.1h-0.8v-0.3H462.5L462.5,1504.6z M463,1504.6h1.3v-0.3h-1v-0.3
			c0.1-0.2,0.2-0.4,0.3-0.6H463v-0.4h0.7c0.1-0.1,0.1-0.2,0.1-0.4l0.4,0.1l-0.1,0.3h1.5v0.4H464c-0.1,0.2-0.2,0.4-0.3,0.6h0.6v-0.5
			h0.4v0.5h0.8v0.4h-0.8v0.3h1.1v0.4h-1.1v0.6h-0.4v-0.6H463V1504.6L463,1504.6z M467.9,1503.7h1c0,0.4,0,0.8,0,1.2
			c0,0.3-0.2,0.5-0.4,0.5c-0.1,0-0.2,0-0.4,0c0-0.1,0-0.3-0.1-0.4c-0.1,0.2-0.2,0.3-0.4,0.4c-0.1-0.1-0.2-0.2-0.4-0.3
			c0.4-0.3,0.7-0.7,0.8-1.2h-0.2c-0.1,0.4-0.3,0.7-0.5,0.9c0,0-0.1-0.1-0.1-0.1c0,0.1,0,0.1,0,0.2c-0.3,0.1-0.7,0.1-0.9,0.2
			l-0.1-0.4c0.1,0,0.2,0,0.3-0.1v-1h-0.3v-0.4h0.3v-0.7h0.4v0.7h0.3v0.4h-0.3v1c0,0,0.1,0,0.1,0c0.2-0.2,0.4-0.4,0.5-0.7h-0.3v-0.3
			l0.9-0.6h-0.9v-0.3h1.6v0.3L467.9,1503.7L467.9,1503.7z M468.2,1505.1c0.2,0,0.2-0.1,0.3-0.2c0-0.2,0-0.5,0-0.8h-0.2
			c-0.1,0.4-0.2,0.7-0.4,1C468.1,1505.1,468.2,1505.1,468.2,1505.1z"/>
	</g>
	<g>
		<path class="st2" d="M795.7,454.6c-3.1-4.6-8.9-14.1-8.7-19c0.1-5,4.4-8.9,9.5-8.7c5.1,0.1,9.1,4.3,9,9.2
			C805.3,441,798.2,451.6,795.7,454.6z"/>
		<g>
			<path class="st1" d="M794.8,438.4v4.1h-2.5v-11.8h4.1c2.9,0,4.4,1.2,4.4,3.7c0,1.2-0.4,2.2-1.3,2.9s-2,1.1-3.3,1H794.8z
				 M794.8,432.7v3.8h1.1c1.5,0,2.2-0.6,2.2-1.9c0-1.3-0.7-1.9-2.2-1.9H794.8z"/>
		</g>
		<path class="st1" d="M791.7,445.4v-0.5h2.2v0.5h-0.4v-0.2h-1.4v0.2H791.7L791.7,445.4z M791.5,443.5c-0.1,0.6-0.3,1-0.5,1.3
			c0,0.2,0.1,0.4,0.1,0.5c0.1-0.1,0.1-0.2,0.2-0.3v1.4h0.4v-2.2c0.1-0.2,0.1-0.4,0.2-0.6L791.5,443.5L791.5,443.5z M792,444.1h1.6
			v0.7H792V444.1L792,444.1z M793.8,444h-2v-0.3h0.8c0-0.1,0-0.1-0.1-0.2l0.4-0.1c0,0.1,0.1,0.2,0.1,0.3h0.8V444L793.8,444z
			 M793.2,444.5v-0.2h-0.9v0.2H793.2L793.2,444.5z M793.7,445.4v0.3h-0.6v0.2c0,0.2-0.1,0.4-0.3,0.4c-0.1,0-0.3,0-0.5,0
			c0-0.1,0-0.2-0.1-0.4c0.1,0,0.2,0,0.4,0c0.1,0,0.1,0,0.1-0.2v-0.1h-0.8v-0.3H793.7L793.7,445.4z M794.2,445.4h1.3v-0.3h-1v-0.3
			c0.1-0.2,0.2-0.4,0.3-0.6h-0.5v-0.4h0.7c0.1-0.1,0.1-0.2,0.1-0.4l0.4,0.1l-0.1,0.3h1.5v0.4h-1.7c-0.1,0.2-0.2,0.4-0.3,0.6h0.6
			v-0.5h0.4v0.5h0.8v0.4h-0.8v0.3h1.1v0.4h-1.1v0.6h-0.4v-0.6h-1.3V445.4L794.2,445.4z M799,444.5h1c0,0.4,0,0.8,0,1.2
			c0,0.3-0.2,0.5-0.4,0.5c-0.1,0-0.2,0-0.4,0c0-0.1,0-0.2-0.1-0.4c-0.1,0.2-0.2,0.3-0.4,0.4c-0.1-0.1-0.2-0.2-0.4-0.3
			c0.4-0.3,0.7-0.7,0.8-1.2H799c-0.1,0.4-0.3,0.7-0.5,0.9c0,0-0.1-0.1-0.1-0.1c0,0.1,0,0.1,0,0.2c-0.3,0.1-0.7,0.1-0.9,0.2l-0.1-0.4
			c0.1,0,0.2,0,0.3-0.1v-1h-0.3v-0.4h0.3v-0.7h0.4v0.7h0.3v0.4H798v1c0.1,0,0.1,0,0.1,0c0.2-0.2,0.4-0.4,0.5-0.7h-0.3v-0.3l0.9-0.6
			h-0.9v-0.4h1.6v0.3L799,444.5L799,444.5z M799.4,445.9c0.2,0,0.2-0.1,0.3-0.2c0-0.2,0-0.5,0-0.8h-0.2c-0.1,0.4-0.2,0.7-0.4,1
			C799.3,445.9,799.4,445.9,799.4,445.9z"/>
	</g>
</g>
<g id="btn30" class='btn'>
	<g>
		<path class="st2" d="M466.8,1623.4c-3.1-4.6-8.9-14.1-8.7-19c0.1-5,4.4-8.8,9.5-8.7c5.1,0.1,9.1,4.3,9,9.2
			C476.4,1609.9,469.3,1620.4,466.8,1623.4z"/>
		<g>
			<polygon class="st3" points="461,1606.8 467.2,1603.4 472.8,1606.8 			"/>
			<rect x="464.2" y="1602.9" class="st3" width="1.1" height="5.9"/>
			<rect x="468.3" y="1602.9" class="st3" width="1.1" height="5.9"/>
			<rect x="461.6" y="1606.6" class="st3" width="1.1" height="2.9"/>
			<rect x="470.9" y="1606.7" class="st3" width="1.1" height="2.9"/>
			<rect x="462.4" y="1608.5" class="st3" width="8.9" height="1.1"/>
			<rect x="466.2" y="1606.9" class="st3" width="1.1" height="2.3"/>
			<polygon class="st3" points="463.2,1603.2 467.1,1599.9 470.6,1603.2 			"/>
		</g>
	</g>
</g>
<g id="btn29" class='btn'>
	<g>
		<path class="st2" d="M440.7,1610.1c-3.1-4.6-8.9-14.1-8.7-19c0.1-5,4.4-8.8,9.5-8.7c5.1,0.1,9.1,4.3,9,9.2
			C450.3,1596.6,443.1,1607.2,440.7,1610.1z"/>
		<path class="st3" d="M441.6,1589c0,0-0.4-0.1-0.5,0c-0.1,0.1-0.3,0.8-0.3,0.9c-0.1,0.1-0.1,0.2,0,0.4c0,0.1,0,0.7,0,0.8
			c0,0.1,0,0.1-0.2,0.2c-0.2,0-0.2,0.1-0.4,0.5s-0.4,1.1-0.3,1.1c0,0.1,0.1,0.1,0.1,0.2c0,0.1,0,0.4,0,0.5c0,0.1,0,0.4,0,0.5
			c0,0.1,0,0.1,0,0.1c0,0,0,0.7,0,0.7c0,0.1,0.1,0.1,0.1,0.2c0,0.1-0.1,0.9-0.2,1.2c-0.1,0.2-0.2,0.6-0.2,0.6c0,0.1,0,0.3,0.1,0.4
			c0.1,0,0.3,0,0.3,0c0,0,0,0,0,0s0,0.4-0.1,0.6c-0.1,0.1-0.1,0.2-0.1,0.2c0.1,0,0.2,0,0.2,0.1c0,0.1-0.3,0.4-0.3,0.5c0,0,0,0,0,0.1
			s2.7,0,2.7,0l0-0.1c0,0-0.2-0.3-0.3-0.3c-0.1-0.1,0-0.1,0-0.1s0.3,0,0.3-0.1c0,0-0.2-0.3-0.2-0.4c0-0.1,0-0.3,0-0.3
			s0.3,0.1,0.4,0.1c0.1-0.1,0-0.3,0-0.4c0-0.1-0.2-0.4-0.2-0.7c0-0.3-0.1-1.3,0-1.4c0,0,0.1-0.1,0.1-0.4c0-0.2,0-0.3,0-0.3
			s0.1-0.1,0.1-0.2c0-0.1,0-0.4,0-0.4s0.1-0.2,0.1-0.2c0-0.1,0-0.1,0-0.1c0-0.1,0-0.1,0-0.2c0-0.1,0-0.1,0.1-0.2
			c0-0.1,0-0.1,0.1-0.1c0,0,0-0.2,0-0.3c0-0.1,0-0.2,0-0.2s-0.2-0.3-0.2-0.6c-0.1-0.3-0.2-0.4-0.3-0.5c-0.1,0-0.3-0.1-0.3-0.4
			c0-0.3,0-0.7,0-0.7s0.1-0.1,0.1-0.1c0-0.1-0.2-0.8-0.2-0.8S441.7,1589.1,441.6,1589z"/>
	</g>
</g>
<g id="btn28" class='btn'>
	<g>
		<path class="st2" d="M495.2,1606.5c-3.1-4.6-8.9-14.1-8.7-19c0.1-5,4.4-8.8,9.5-8.7c5.1,0.1,9.1,4.3,9,9.2
			C504.8,1593,497.7,1603.6,495.2,1606.5z"/>
		<g>
			<polygon class="st3" points="489.4,1589.9 495.6,1586.6 501.2,1589.9 			"/>
			<rect x="492.6" y="1586.1" class="st3" width="1.1" height="5.9"/>
			<rect x="496.7" y="1586.1" class="st3" width="1.1" height="5.9"/>
			<rect x="490" y="1589.8" class="st3" width="1.1" height="2.9"/>
			<rect x="499.3" y="1589.9" class="st3" width="1.1" height="2.9"/>
			<rect x="490.8" y="1591.6" class="st3" width="8.9" height="1.1"/>
			<rect x="494.6" y="1590.1" class="st3" width="1.1" height="2.3"/>
			<polygon class="st3" points="491.6,1586.4 495.5,1583 499,1586.4 			"/>
		</g>
	</g>
</g>
<g id="btn27" class='btn'>
	<g>
		<path class="st2" d="M470.6,1590.6c-3.1-4.6-8.9-14.1-8.7-19c0.1-5,4.4-8.8,9.5-8.7c5.1,0.2,9.1,4.3,9,9.2
			C480.2,1577.1,473.1,1587.7,470.6,1590.6z"/>
		<g>
			<path class="st3" d="M467.9,1575.3l-0.6,1l-0.6,0l0.5-1.6l0-2.6l-0.1,0l0-0.3l-1.7,0l-1-0.9v-0.4l0.5,0l0.5,0.5l1.4,0
				c0,0,0.4-0.1,0.3-0.2c-0.1-0.1-0.4-0.3-0.3-0.3c0.1-0.1,1.4,0,1.4,0l0-0.7l0.5,0l-0.2-0.7l-1.3,0c0,0-0.4,0-0.7-0.4
				c-0.4-0.4-0.7-0.4-0.7-0.4s0-0.1,0.1-0.1c0.1,0,0-0.3,0-0.3c0,0-0.3-0.1-0.4-0.3c-0.1-0.1,0-0.1,0.2-0.1c0.2,0,0.7,0.1,1,0.5
				c0.3,0.4,0.2,0.3,0.2,0.3l1.3,0c0,0,0.1-0.2-0.1-0.3c-0.2-0.1-0.4-0.2-0.4-0.2s0.2-0.1,0.5,0c0.3,0.1,0.7,0.3,0.7,0.4
				c0,0,0.3,0,0.5-0.2c0.2-0.1,0.6-0.5,0.9-0.5c0.3-0.1,0.4-0.2,0.3-0.4c-0.1-0.2-0.2-0.7,0.1-0.9c0.3-0.1,0.5,0,0.5,0l-0.3,1
				l-0.2,4.9l-2.9,0L467.9,1575.3z"/>
			<path class="st3" d="M474.5,1575.1l0.7,0.9l0.6,0l-0.6-1.6l-0.1-2.6l0.1,0l0-0.3l1.8,0l1.1-1l0-0.4l-0.6,0l-0.5,0.6l-1.5,0
				c0,0-0.4-0.1-0.3-0.2c0.1-0.1,0.4-0.3,0.3-0.3c-0.1-0.1-1.5,0-1.5,0l0-0.7l-0.6,0l0.2-0.7l1.4,0c0,0,0.4-0.1,0.8-0.5
				c0.4-0.4,0.7-0.5,0.7-0.5s-0.1-0.1-0.1-0.1c-0.1,0,0-0.3,0-0.3c0,0,0.3-0.2,0.4-0.3c0.1-0.1-0.1-0.1-0.3-0.1
				c-0.2,0-0.8,0.2-1,0.5c-0.3,0.4-0.2,0.3-0.2,0.3l-1.4,0c0,0-0.1-0.2,0.1-0.3c0.2-0.1,0.4-0.2,0.4-0.2s-0.2-0.1-0.6,0
				c-0.4,0.1-0.7,0.3-0.7,0.4c0,0-0.4,0-0.6-0.2c-0.2-0.1-0.7-0.4-1-0.5c-0.3,0-0.1-0.1,0-0.4c0.1-0.2,0.6-0.7,0.1-0.9
				c-0.4-0.1-0.6,0.1-0.6,0.1l0,0.8l-0.2,4.9l3.6-0.2L474.5,1575.1z"/>
			<path class="st3" d="M467.9,1571.8c0,0,0.3,0.3,0.6,0.3c0.2,0,0.2,0,0.2,0l0,2l-0.8,0l-0.1,0l0,1.2l0.7,0l-0.2,1l0.9,0l0.1-1
				l2.1,0l0,0.9l1.8,0l-0.2-1.1l0-3.5l-1.7,0.1c0,0,0.1,0.5,0.4,0.5c0.3,0,0.2,0,0.2,0l0,1.9l-0.6,0l-0.1-2.1l-1.3,0.2l0,1.9l-0.7,0
				c0,0,0-0.8,0-1.5c0-0.8-0.2-1.2-0.2-1.2l-0.9,0.1L467.9,1571.8z"/>
			<path class="st3" d="M470.2,1572.2c0,0-0.3-0.2-0.5-0.2c-0.2,0-0.2,2.1-0.2,2.1l-0.5-1.7l0-1.1l2.7-0.1l-0.1,0.8l-0.2,0l0.1,2.1
				l-0.4,0L470.2,1572.2z"/>
			<path class="st3" d="M473.1,1571.9c0,0,0.1,0.2,0.6,0.2c0.4,0,0.1,0,0.1,0l0,1.4l-0.4,0l0,0.5c0,0-0.1,0.1,0,0.3
				c0.1,0.2,0,0.6-0.2,0.6c-0.2,0-0.2,0-0.2,0l0.3,1.1l1.8,0l-0.3-1.8l-0.2-3l-1.5-0.1L473.1,1571.9z"/>
		</g>
	</g>
</g>
<g id="btn26" class='btn'>
	<g>
		<path class="st2" d="M417,1583.6c-3.1-4.6-8.9-14.1-8.7-19c0.1-5,4.4-8.8,9.5-8.7c5.1,0.1,9.1,4.3,9,9.2
			C426.6,1570.1,419.5,1580.6,417,1583.6z"/>
		<g>
			<polygon class="st3" points="411.2,1567 417.4,1563.6 423,1567 			"/>
			<rect x="414.4" y="1563.1" class="st3" width="1.1" height="5.9"/>
			<rect x="418.5" y="1563.1" class="st3" width="1.1" height="5.9"/>
			<rect x="411.8" y="1566.8" class="st3" width="1.1" height="2.9"/>
			<rect x="421.1" y="1566.9" class="st3" width="1.1" height="2.9"/>
			<rect x="412.6" y="1568.7" class="st3" width="8.9" height="1.1"/>
			<rect x="416.4" y="1567.1" class="st3" width="1.1" height="2.3"/>
			<polygon class="st3" points="413.4,1563.4 417.3,1560.1 420.8,1563.4 			"/>
		</g>
	</g>
</g>
<g id="btn25" class='btn'>
	<g>
		<path class="st2" d="M503.8,1541.7c-3.1-4.6-8.9-14.1-8.7-19c0.1-5,4.4-8.8,9.5-8.7c5.1,0.1,9.1,4.3,9,9.2
			C513.4,1528.2,506.2,1538.8,503.8,1541.7z"/>
		<g>
			<polygon class="st3" points="498,1525.1 504.1,1521.8 509.8,1525.1 			"/>
			<rect x="501.2" y="1521.3" class="st3" width="1.1" height="5.9"/>
			<rect x="505.2" y="1521.3" class="st3" width="1.1" height="5.9"/>
			<rect x="498.6" y="1525" class="st3" width="1.1" height="2.9"/>
			<rect x="507.9" y="1525.1" class="st3" width="1.1" height="2.9"/>
			<rect x="499.3" y="1526.8" class="st3" width="8.9" height="1.1"/>
			<rect x="503.2" y="1525.3" class="st3" width="1.1" height="2.3"/>
			<polygon class="st3" points="500.2,1521.6 504,1518.2 507.5,1521.6 			"/>
		</g>
	</g>
</g>
<g id="btn24" class='btn'>
	<g>
		<path class="st2" d="M517.8,1349.8c-3.1-4.6-8.9-14.1-8.7-19c0.1-5,4.4-8.9,9.5-8.7c5.1,0.1,9.1,4.3,9,9.2
			C527.4,1336.3,520.2,1346.8,517.8,1349.8z"/>
		<g>
			<polygon class="st3" points="512,1333.2 518.1,1329.9 523.7,1333.2 			"/>
			<rect x="515.2" y="1329.4" class="st3" width="1.1" height="5.9"/>
			<rect x="519.2" y="1329.4" class="st3" width="1.1" height="5.9"/>
			<rect x="512.6" y="1333.1" class="st3" width="1.1" height="2.9"/>
			<rect x="521.9" y="1333.2" class="st3" width="1.1" height="2.9"/>
			<rect x="513.3" y="1334.9" class="st3" width="8.9" height="1.1"/>
			<rect x="517.2" y="1333.4" class="st3" width="1.1" height="2.3"/>
			<polygon class="st3" points="514.2,1329.7 518,1326.3 521.5,1329.7 			"/>
		</g>
	</g>
</g>
<g id="btn23" class='btn'>
	<g>
		<path class="st2" d="M285.9,1103.1c-3.1-4.6-8.9-14.1-8.7-19c0.1-5,4.4-8.9,9.5-8.7c5.1,0.1,9.1,4.3,9,9.2
			C295.5,1089.5,288.4,1100.1,285.9,1103.1z"/>
		<g>
			<polygon class="st3" points="284.2,1081.2 288.6,1081.2 286.5,1079.4 			"/>
			<polygon class="st3" points="282.8,1081.5 282.8,1082 283.3,1082 283.3,1088.7 282.8,1088.7 282.8,1089.2 289.9,1089.2 
				289.9,1088.7 289.5,1088.7 289.6,1082 290,1082 290,1081.5 			"/>
			<rect x="284.2" y="1082.4" class="st2" width="1" height="1.3"/>
			<rect x="284.2" y="1084.2" class="st2" width="1" height="1.3"/>
			<rect x="284.2" y="1085.8" class="st2" width="1" height="1.3"/>
			<rect x="284.2" y="1087.7" class="st2" width="1" height="1.3"/>
			<rect x="285.9" y="1082.4" class="st2" width="1" height="1.3"/>
			<rect x="285.8" y="1084.2" class="st2" width="1" height="1.3"/>
			<rect x="285.8" y="1085.8" class="st2" width="1" height="1.3"/>
			<rect x="285.8" y="1087.7" class="st2" width="1" height="1.3"/>
			<rect x="287.4" y="1082.4" class="st2" width="1" height="1.3"/>
			<rect x="287.4" y="1084.2" class="st2" width="1" height="1.3"/>
			<rect x="287.3" y="1085.8" class="st2" width="1" height="1.3"/>
			<rect x="287.3" y="1087.7" class="st2" width="1" height="1.3"/>
		</g>
	</g>
</g>
<g id="btn22" class='btn'>
	<g>
		<path class="st2" d="M356.2,983.9c-3.1-4.6-8.9-14.1-8.7-19c0.1-5,4.4-8.9,9.5-8.7c5.1,0.1,9.1,4.3,9,9.2
			C365.8,970.4,358.7,980.9,356.2,983.9z"/>
		<g>
			<polygon class="st3" points="350.4,967.3 356.6,964 362.2,967.3 			"/>
			<rect x="353.6" y="963.5" class="st3" width="1.1" height="5.9"/>
			<rect x="357.7" y="963.5" class="st3" width="1.1" height="5.9"/>
			<rect x="351" y="967.2" class="st3" width="1.1" height="2.9"/>
			<rect x="360.3" y="967.3" class="st3" width="1.1" height="2.9"/>
			<rect x="351.8" y="969" class="st3" width="8.9" height="1.1"/>
			<rect x="355.6" y="967.5" class="st3" width="1.1" height="2.3"/>
			<polygon class="st3" points="352.6,963.8 356.4,960.4 360,963.8 			"/>
		</g>
	</g>
</g>
<g id="btn21" class='btn'>
	<g>
		<path class="st2" d="M327.8,900.2c-3.1-4.6-8.9-14.1-8.7-19c0.1-5,4.4-8.8,9.5-8.7c5.1,0.1,9.1,4.3,9,9.2
			C337.4,886.7,330.3,897.2,327.8,900.2z"/>
		<polygon class="st3" points="324.7,883.2 324.7,883.2 324.6,883.2 324.6,883.2 324.6,883.2 324.5,883.2 324.5,883.3 324.5,883.3 
			324.5,883.3 324.5,883.3 324.5,883.3 324.5,883.4 324.4,883.4 324.4,883.4 324.4,883.4 324.4,883.4 324.3,883.3 324.3,883.3 
			324.3,883.3 324.3,883.3 324.3,883.3 324.3,883.3 324.3,883.3 324.2,883.3 324.2,883.3 324.2,883.2 324.2,883.2 324.2,883.2 
			324.2,883.2 324.2,883.2 324.2,883.2 324.2,883.1 324.2,883.1 324.2,883.1 324.3,883.1 324.3,883.1 324.3,883.1 324.3,883 
			324.3,883 324.3,883 324.5,883 324.6,883 324.7,883 324.7,883 324.7,883.1 324.7,883.1 324.7,883.2 324.7,883.2 		"/>
		<polygon class="st3" points="332.8,880.2 332.7,880.2 332.7,880.2 332.7,880.3 332.6,880.3 332.6,880.3 332.6,880.3 332.5,880.3 
			332.5,880.3 332.5,880.3 332.5,880.3 332.5,880.4 332.4,880.4 332.4,880.4 332.4,880.4 332.4,880.4 332.3,880.4 332.3,880.4 
			332.3,880.4 332.3,880.5 332.2,880.5 332.2,880.5 332.2,880.5 332.2,880.5 332.1,880.5 332.1,880.5 332.1,880.5 332.1,880.6 
			332.1,880.6 332,880.6 332,880.6 332,880.6 332,880.6 331.9,880.6 331.9,880.6 331.9,880.7 331.9,880.7 331.9,880.7 331.8,880.7 
			331.8,880.7 331.8,880.7 331.8,880.7 331.8,880.7 331.7,880.8 331.7,880.8 331.7,880.8 331.7,880.8 331.7,880.8 331.6,880.8 
			331.6,880.8 331.6,880.8 331.6,880.9 331.6,880.9 331.5,880.9 331.5,880.9 331.5,880.9 331.5,880.9 331.4,880.9 331.4,880.9 
			331.2,881 331.2,880.9 331.2,880.9 331.2,880.9 331.2,880.9 330.9,880.9 330.8,880.9 330.8,880.9 330.7,880.9 330.7,880.9 
			330.7,880.8 330.7,880.8 330.7,880.8 330.7,880.8 330.7,880.8 330.6,880.7 330.6,880.7 330.6,880.6 330.6,880.6 330.6,880.6 
			330.6,880.6 330.6,880.6 330.6,880.7 330.6,880.8 330.6,880.8 330.6,880.8 330.6,880.9 330.6,880.9 330.6,880.9 330.6,880.9 
			330.7,880.9 330.7,880.9 330.7,880.9 330.7,881 330.7,881 330.8,881 330.7,881 330.7,881 330.7,881 330.6,881 330.6,881 
			330.6,881.1 330.6,881.1 330.6,881.1 330.6,881.1 330.5,881.1 330.4,881.1 330.3,881.1 330.3,881.1 330.3,881.2 330.2,881.2 
			330.2,881.2 330.2,881.2 330.2,881.2 330.2,881.2 330.2,881.2 330.2,881.2 330.1,881.3 330.1,881.4 330.2,881.4 330.2,881.5 
			330.2,881.5 330.2,881.5 330.2,881.5 330.2,881.6 330.2,881.6 330.2,881.7 330.2,881.7 330.2,881.7 330.2,881.7 330.2,881.7 
			330.2,881.7 330.1,881.7 330.1,881.8 330.1,881.8 330.1,881.8 330.1,881.8 330.1,881.8 330.1,881.8 330.1,881.8 330,881.8 
			330,881.9 330,881.9 330,881.9 330,881.9 330,881.9 330,881.9 330,881.9 330,881.9 329.9,882 329.9,882 329.9,882 329.9,882 
			329.9,882 329.9,882 329.9,882 329.9,882.1 329.8,882.1 329.8,882.1 329.8,882.1 329.8,882.1 329.8,882.1 329.8,882.1 
			329.8,882.1 329.8,882.1 329.8,882.2 329.7,882.2 329.7,882.2 329.7,882.2 329.7,882.2 329.7,882.2 329.7,882.2 329.7,882.3 
			329.7,882.3 329.6,882.3 329.6,882.3 329.6,882.3 329.6,882.3 329.6,882.4 329.6,882.4 329.6,882.4 329.6,882.4 329.6,882.4 
			329.5,882.5 329.5,882.5 329.5,882.5 329.5,882.5 329.5,882.6 329.5,882.6 329.5,882.6 329.5,882.7 329.5,882.7 329.4,882.8 
			329.4,882.9 329.4,882.9 329.4,882.9 329.4,882.9 329.3,882.9 329.3,882.9 329.2,883 329.2,883 329,882.9 328.9,882.9 
			328.8,882.9 328.7,882.9 328.3,882.9 328.3,882.9 328.2,882.9 328.2,882.9 328.2,882.9 328.1,882.9 328.1,882.9 328,882.9 
			328,882.9 328,882.8 328.1,882.8 328.2,882.8 328.3,882.8 328.3,882.8 328.4,882.8 328.4,882.8 328.4,882.8 328.4,882.8 
			328.4,882.7 328.4,882.7 328.5,882.7 328.5,882.6 328.5,882.5 328.5,882.4 328.5,882.2 328.4,882.2 328.4,882.1 328.4,882.1 
			328.4,882 328.4,882 328.4,882 328.4,881.9 328.4,881.9 328.3,881.9 328.3,881.9 328.3,881.9 328.2,881.9 328,881.9 327.9,881.9 
			327.7,881.9 327.6,881.9 327.5,882 327.4,882 327.3,882 327.2,882 327.1,882 327,882 326.9,882 326.8,882.1 326.6,882.1 
			326.5,882.1 326.4,882.1 326.3,882.1 326.2,882.1 326.1,882.1 326,882.2 325.9,882.2 325.9,882.1 325.9,882.1 325.8,882 
			325.8,882 325.7,882 325.6,882 325.6,882.1 325.6,882.1 325.6,882.2 325.6,882.2 325.6,882.2 325.5,882.2 325.4,882.2 
			325.4,882.2 325.3,882.3 325.3,882.3 325.3,882.3 325.3,882.3 325.3,882.3 325.3,882.3 325.2,882.3 325.2,882.4 325.2,882.4 
			325.2,882.4 325.2,882.4 325.2,882.5 325.2,882.5 325.2,882.5 325.2,882.5 325.1,882.6 325.1,882.6 325.1,882.6 325.1,882.6 
			325,882.6 325,882.6 324.9,882.7 324.9,882.7 324.9,882.7 324.9,882.7 325,882.7 325,882.8 324.9,882.8 324.9,882.7 324.9,882.7 
			324.8,882.7 324.8,882.7 324.7,882.7 324.7,882.8 324.7,882.8 324.7,882.8 324.7,882.8 324.7,882.9 324.7,882.9 324.7,882.9 
			324.7,882.9 324.7,882.9 324.7,883 324.6,882.9 324.6,882.9 324.5,882.9 324.4,882.9 324.3,882.9 324.3,882.9 324.3,883 
			324.2,883 324.2,883 324.2,883 324.2,883 324.2,883 324.2,883 324.2,883.1 324.1,883.1 324.1,883.1 324.1,883.1 324.1,883.1 
			324.1,883.2 324.1,883.2 324.1,883.2 324,883.2 323.9,883.2 323.9,883.2 323.8,883.2 323.8,883.2 323.8,883.2 323.7,883.2 
			323.7,883.2 323.7,883.2 323.7,883.3 323.7,883.3 323.7,883.3 323.6,883.3 323.6,883.3 323.6,883.3 323.6,883.3 323.6,883.3 
			323.6,883.4 323.6,883.4 323.6,883.4 323.6,883.4 323.5,883.4 323.5,883.5 323.5,883.5 323.5,883.5 323.5,883.6 323.5,883.6 
			323.5,883.7 323.5,883.7 323.4,883.7 323.4,883.7 323.3,883.7 323,883.7 322.9,883.7 322.8,883.7 322.8,883.7 322.8,883.7 
			322.7,883.7 322.7,883.7 322.7,883.8 322.7,883.8 322.6,883.8 322.6,883.8 322.6,883.8 322.6,883.9 322.6,883.9 322.6,883.9 
			322.7,883.9 322.7,883.9 322.7,883.9 322.8,883.9 322.8,883.8 322.9,883.8 322.9,883.8 323,883.8 323.3,883.8 323.3,883.8 
			323.4,883.8 323.4,883.8 323.4,883.8 323.5,883.9 323.5,883.9 323.5,883.9 323.5,883.9 323.5,883.9 323.5,884 323.5,884 
			323.5,884 323.6,884.1 323.6,884.1 323.5,884.1 323.5,884.2 323.5,884.2 323.5,884.2 323.5,884.2 323.5,884.2 323.5,884.3 
			323.6,884.3 323.6,884.3 323.6,884.3 323.6,884.3 323.6,884.3 323.6,884.3 323.6,884.3 323.7,884.3 323.7,884.4 323.7,884.4 
			323.7,884.4 323.7,884.4 323.8,884.4 323.8,884.4 323.8,884.4 323.8,884.4 323.9,884.4 323.9,884.4 323.9,884.4 323.9,884.4 
			324,884.4 324,884.4 324,884.4 324,884.4 324,884.5 324,884.5 324,884.5 323.9,884.5 323.9,884.5 323.9,884.5 323.9,884.6 
			323.9,884.6 323.9,884.6 323.9,884.6 323.9,884.7 323.9,884.7 323.8,884.7 323.8,884.7 323.8,884.7 323.7,884.8 323.7,884.8 
			323.7,884.8 323.7,884.8 323.6,884.8 323.6,884.8 323.5,884.8 323.5,884.9 323.5,884.9 323.5,884.9 323.4,884.9 323.4,884.9 
			323.4,884.9 323.4,884.9 323.4,884.9 323.4,885 323.3,885 323.3,885 323.3,885 323.2,885 323.2,885 323.2,885 323.1,885 
			323.1,885.1 323.1,885.1 323.1,885.1 323.1,885.1 323.1,885.1 323,885.1 323,885.1 323,885.1 323,885.1 322.9,885.1 322.8,885.1 
			322.8,885.1 322.8,885.1 322.8,885.1 322.8,885.1 322.8,885.1 322.7,885.2 322.7,885.2 322.7,885.2 322.7,885.2 322.7,885.2 
			322.7,885.3 322.7,885.3 322.7,885.3 322.7,885.3 322.7,885.3 324.1,885.3 324.2,885.3 324.3,885.3 324.4,885.3 324.4,885.2 
			324.5,885.2 324.5,885.2 324.6,885.2 324.6,885.2 324.6,885.2 324.7,885.2 324.7,885.2 324.7,885.1 324.7,885.1 324.7,885.1 
			324.7,885.1 324.7,885.1 324.8,885.1 324.8,885.1 324.8,885.1 324.8,885 324.8,885 324.8,885 324.8,885 324.8,885 324.8,885 
			324.9,884.9 324.9,884.9 324.9,884.9 324.9,884.9 324.9,884.9 324.9,884.8 324.9,884.8 324.9,884.8 324.9,884.8 325,884.7 
			325,884.7 325,884.7 325,884.7 325,884.7 325,884.7 325,884.6 325,884.6 325.1,884.6 325.1,884.6 325.1,884.6 325.1,884.5 
			325.1,884.5 325.1,884.5 325.1,884.5 325.1,884.5 325.2,884.5 325.2,884.6 325.2,884.6 325.2,884.6 325.2,884.6 325.3,884.6 
			325.3,884.6 325.3,884.6 325.4,884.6 325.4,884.6 325.5,884.7 325.6,884.7 325.7,884.7 325.8,884.7 325.8,884.7 325.9,884.7 
			325.9,884.7 326,884.7 326,884.7 326,884.7 326.1,884.8 326.1,884.8 326.1,884.8 326.1,884.8 326.2,884.8 326.2,884.8 
			326.2,884.8 326.2,884.8 326.3,884.9 326.3,884.9 326.3,884.9 326.3,884.9 326.3,884.9 326.4,884.9 326.4,884.9 326.4,884.9 
			326.4,884.9 326.4,885 326.4,885 326.5,885 326.5,885 326.5,885 326.5,885 326.5,885 326.5,885 326.5,885.1 326.6,885.1 
			326.6,885.1 326.6,885.1 326.6,885.1 326.6,885.1 326.6,885.1 326.7,885.1 326.7,885.1 326.7,885.1 326.8,885.1 326.8,885.1 
			326.8,885.1 326.8,885.1 326.8,885.1 326.8,885 326.8,885 326.9,885 326.9,885 326.9,885.1 326.9,885.1 326.9,885.1 326.9,885.1 
			326.9,885.1 327,885.2 327,885.3 327,885.3 327,885.4 327,885.4 327,885.4 327,885.4 327,885.4 327.1,885.4 327.1,885.5 
			327.1,885.5 327.1,885.5 327.1,885.5 327.1,885.5 327.1,885.5 327.1,885.5 327.2,885.6 327.2,885.6 327.2,885.6 327.2,885.6 
			327.2,885.6 327.2,885.6 327.2,885.6 327.2,885.6 327.3,885.6 327.3,885.7 327.3,885.7 327.3,885.7 327.3,885.7 327.4,885.7 
			327.4,885.7 327.4,885.7 327.4,885.7 327.5,885.7 327.5,885.7 327.5,885.6 327.5,885.6 327.5,885.6 327.5,885.5 327.5,885.5 
			327.5,885.5 327.5,885.4 327.4,885.4 327.4,885.4 327.4,885.4 327.4,885.4 327.4,885.3 327.4,885.3 327.4,885.3 327.4,885.3 
			327.3,885.3 327.3,885.3 327.3,885.2 327.3,885.2 327.3,885.2 327.3,885.2 327.3,885.2 327.3,885.2 327.2,885.2 327.2,885.1 
			327.2,885.1 327.2,885.1 327.2,885.1 327.2,885.1 327.1,885.1 327.1,885.1 327,885.1 327,885.1 327,885 327,885 327,885 327,885 
			327,885 326.9,885 326.9,885 327,884.9 327,884.9 327,884.9 327,884.9 327,884.9 327,884.9 327.1,884.9 327.1,884.9 327.1,884.8 
			327.1,884.8 327.1,884.8 327.1,884.8 327.2,884.8 327.2,884.8 327.2,884.8 327.2,884.8 327.2,884.7 327.2,884.7 327.2,884.7 
			327.3,884.7 327.3,884.7 327.3,884.7 327.3,884.7 327.3,884.7 327.3,884.7 327.3,884.6 327.3,884.6 327.4,884.6 327.4,884.6 
			327.4,884.6 327.4,884.6 327.4,884.5 327.4,884.4 327.4,884.4 327.4,884.4 327.5,884.4 327.5,884.4 327.5,884.4 327.5,884.4 
			327.6,884.3 327.6,884.3 327.6,884.3 327.6,884.3 327.6,884.3 327.6,884.3 327.6,884.3 327.7,884.3 327.7,884.2 327.7,884.2 
			327.7,884.2 327.7,884.2 327.8,884.2 327.8,884.2 327.8,884.2 327.8,884.2 327.9,884.1 327.9,884.1 327.9,884.1 327.9,884.1 
			328,884.1 328,884.1 328.4,884.1 328.6,884.1 329,884.1 329.1,884.1 329.2,884 329.3,884 329.3,884 329.4,884 329.4,884 
			329.5,884 329.5,884 329.6,884 329.6,883.9 329.7,883.9 329.8,883.9 329.8,883.9 329.9,883.9 329.9,883.9 329.9,883.9 330,883.9 
			330,883.8 330,883.8 330,883.8 330.1,883.8 330.1,883.8 330.1,883.8 330.1,883.8 330.1,883.8 330.1,883.7 330.1,883.7 
			330.1,883.7 330.1,883.7 330.2,883.6 330.2,883.6 330.2,883.5 330.2,883.5 330.2,883.5 330.2,883.4 330.2,883.3 330.2,883.2 
			330.2,883.2 330.3,883.1 330.3,883.1 330.3,883 330.3,883 330.3,882.9 330.3,882.9 330.3,882.8 330.3,882.8 330.3,882.7 
			330.4,882.7 330.4,882.6 330.4,882.6 330.4,882.5 330.4,882.5 330.4,882.5 330.4,882.4 330.4,882.4 330.4,882.4 330.5,882.3 
			330.5,882.3 330.5,882.2 330.5,882.2 330.5,882.2 330.5,882.1 330.5,882.1 330.5,882.1 330.5,882 330.6,882 330.6,882 330.6,882 
			330.6,881.9 330.6,881.9 330.6,881.9 330.6,881.9 330.6,881.9 330.6,881.8 330.7,881.8 330.7,881.8 330.7,881.8 330.7,881.8 
			330.7,881.8 330.7,881.7 330.7,881.7 330.7,881.7 330.8,881.7 330.8,881.7 330.8,881.7 330.8,881.8 330.8,881.8 330.8,881.8 
			330.8,881.8 330.9,881.8 330.9,881.9 330.9,881.9 330.9,881.9 330.9,881.9 330.9,881.9 331,881.9 331,881.9 331,881.9 331,881.9 
			331.1,881.9 331.1,881.9 331,881.9 331,881.9 331,881.9 331,881.9 331,881.8 331,881.8 330.9,881.8 330.9,881.8 330.9,881.8 
			330.9,881.8 330.9,881.8 330.9,881.7 330.9,881.7 330.9,881.6 330.9,881.6 331.2,881.6 331.3,881.6 331.3,881.6 331.5,881.6 
			331.5,881.6 331.6,881.6 331.6,881.6 331.7,881.6 331.7,881.6 331.7,881.6 331.8,881.7 331.8,881.7 331.8,881.7 331.8,881.7 
			331.9,881.7 331.9,881.7 331.9,881.7 331.9,881.7 331.9,881.7 332,881.8 332,881.8 332,881.8 332,881.8 332.1,881.8 332.1,881.8 
			332.2,881.8 332.4,881.8 332.6,881.8 332.7,881.8 332.9,881.9 333,881.9 333.2,881.9 333.4,881.9 333.7,881.9 333.7,881.9 
			333.7,881.9 333.7,881.8 333.8,881.8 333.8,881.8 333.8,881.8 333.8,881.7 333.8,881.2 333.8,881 333.8,880.9 333.8,880.9 
			333.8,880.9 333.7,880.8 333.7,880.8 333.7,880.8 333.7,880.8 333.7,880.8 333.7,880.8 333.7,880.8 333.6,880.8 333.6,880.7 
			333.6,880.7 333.6,880.7 333.5,880.7 333.4,880.7 333.2,880.7 332.9,880.7 332.5,880.7 332.4,880.7 332.4,880.7 332.4,880.7 
			332.4,880.7 332.5,880.7 332.5,880.7 332.5,880.6 332.6,880.6 332.6,880.6 332.6,880.6 332.6,880.6 332.7,880.6 332.7,880.6 
			332.7,880.6 332.8,880.5 332.8,880.5 332.8,880.5 332.9,880.5 332.9,880.5 332.9,880.5 333,880.5 333,880.4 333.1,880.4 
			333.2,880.4 333.3,880.4 333.3,880.4 333.4,880.4 333.4,880.4 333.4,880.4 333.4,880.3 333.4,880.3 333.4,880.3 333.4,880.3 
			333.3,880.3 333.3,880.3 333.3,880.3 333.3,880.3 333.2,880.2 333.2,880.2 333.1,880.2 333.1,880.2 333,880.2 332.8,880.2 		"/>
	</g>
</g>
<g id="btn20" class='btn'>
	<g>
		<path class="st2" d="M387.6,927.7c-3.1-4.6-8.9-14.1-8.7-19c0.1-5,4.4-8.9,9.5-8.7c5.1,0.1,9.1,4.3,9,9.2
			C397.2,914.1,390.1,924.7,387.6,927.7z"/>
		<g>
			<polygon class="st3" points="385.9,906.2 390.3,906.2 388.2,904.5 			"/>
			<polygon class="st3" points="384.5,906.6 384.5,907 384.9,907 384.9,913.8 384.5,913.8 384.5,914.2 391.6,914.2 391.6,913.8 
				391.2,913.8 391.3,907 391.7,907 391.7,906.6 			"/>
			<rect x="385.9" y="907.5" class="st2" width="1" height="1.3"/>
			<rect x="385.9" y="909.2" class="st2" width="1" height="1.3"/>
			<rect x="385.9" y="910.9" class="st2" width="1" height="1.3"/>
			<rect x="385.9" y="912.8" class="st2" width="1" height="1.3"/>
			<rect x="387.5" y="907.5" class="st2" width="1" height="1.3"/>
			<rect x="387.5" y="909.2" class="st2" width="1" height="1.3"/>
			<rect x="387.5" y="910.9" class="st2" width="1" height="1.3"/>
			<rect x="387.5" y="912.8" class="st2" width="1" height="1.3"/>
			<rect x="389" y="907.5" class="st2" width="1" height="1.3"/>
			<rect x="389" y="909.2" class="st2" width="1" height="1.3"/>
			<rect x="389" y="910.9" class="st2" width="1" height="1.3"/>
			<rect x="389" y="912.8" class="st2" width="1" height="1.3"/>
		</g>
	</g>
</g>
<g id="btn19" class='btn'>
	<g>
		<path class="st2" d="M834.7,901.4c-3.1-4.6-8.9-14.1-8.7-19c0.1-5,4.4-8.8,9.5-8.7c5.1,0.1,9.1,4.3,9,9.2
			C844.3,887.9,837.2,898.4,834.7,901.4z"/>
		<g>
			<polygon class="st3" points="828.9,884.8 835.1,881.5 840.7,884.8 			"/>
			<rect x="832.1" y="881" class="st3" width="1.1" height="5.9"/>
			<rect x="836.2" y="881" class="st3" width="1.1" height="5.9"/>
			<rect x="829.5" y="884.7" class="st3" width="1.1" height="2.9"/>
			<rect x="838.8" y="884.8" class="st3" width="1.1" height="2.9"/>
			<rect x="830.3" y="886.5" class="st3" width="8.9" height="1.1"/>
			<rect x="834.1" y="885" class="st3" width="1.1" height="2.3"/>
			<polygon class="st3" points="831.1,881.3 835,877.9 838.5,881.3 			"/>
		</g>
	</g>
</g>
<g id="btn18" class='btn'>
	<g>
		<path class="st2" d="M503.7,892.1c-3.1-4.6-8.9-14.1-8.7-19c0.1-5,4.4-8.8,9.5-8.7c5.1,0.1,9.1,4.3,9,9.2
			C513.3,878.6,506.2,889.1,503.7,892.1z"/>
		<g>
			<polygon class="st3" points="497.9,875.5 504.1,872.2 509.7,875.5 			"/>
			<rect x="501.1" y="871.6" class="st3" width="1.1" height="5.9"/>
			<rect x="505.2" y="871.7" class="st3" width="1.1" height="5.9"/>
			<rect x="498.5" y="875.4" class="st3" width="1.1" height="2.9"/>
			<rect x="507.8" y="875.4" class="st3" width="1.1" height="2.9"/>
			<rect x="499.3" y="877.2" class="st3" width="8.9" height="1.1"/>
			<rect x="503.1" y="875.6" class="st3" width="1.1" height="2.3"/>
			<polygon class="st3" points="500.1,871.9 504,868.6 507.5,871.9 			"/>
		</g>
	</g>
</g>
<g id="btn17" class='btn'>
	<g>
		<path class="st2" d="M455.1,877.7c-3.1-4.6-8.9-14.1-8.7-19c0.1-5,4.4-8.8,9.5-8.7c5.1,0.1,9.1,4.3,9,9.2
			C464.7,864.2,457.6,874.8,455.1,877.7z"/>
		<g>
			<path class="st3" d="M452.7,851.6l0.2,0c0.1,0,0.2,0.1,0.2,0.2l0,2c0,0.1-0.1,0.2-0.2,0.2l-0.2,0c-0.1,0-0.2-0.1-0.2-0.2l0-2
				C452.5,851.7,452.6,851.7,452.7,851.6z"/>
			<path class="st3" d="M453.5,851.6l0.2,0c0.1,0,0.2,0.1,0.2,0.2l0,2c0,0.1-0.1,0.2-0.2,0.2l-0.2,0c-0.1,0-0.2-0.1-0.2-0.2l0-2
				C453.4,851.7,453.5,851.6,453.5,851.6z"/>
			<path class="st3" d="M454.4,851.6l0.2,0c0.1,0,0.2,0.1,0.2,0.2l0,2c0,0.1-0.1,0.2-0.2,0.2l-0.2,0c-0.1,0-0.2-0.1-0.2-0.2l0-2
				C454.2,851.7,454.3,851.6,454.4,851.6z"/>
			<path class="st3" d="M455.2,851.6l0.2,0c0.1,0,0.2,0.1,0.2,0.2l0,2c0,0.1-0.1,0.2-0.2,0.2l-0.2,0c-0.1,0-0.2-0.1-0.2-0.2l0-2.1
				C455.1,851.7,455.2,851.6,455.2,851.6z"/>
			<path class="st3" d="M453.1,853.9c0,0,0.1,0.2,0.3,0c0.2-0.2,0.4-0.1,0.4-0.1l0.1,0.1c0,0,0.2,0.2,0.4,0c0.2-0.2,0.5,0,0.5,0
				s0.2,0.2,0.4,0c0.2-0.2,0.5-0.1,0.5-0.1s0,0.7-0.3,1.1c-0.3,0.4-0.7,0.5-0.7,0.5l0.1,5.6c0,0-0.2,0.4-0.5,0.4
				c-0.3,0-0.6-0.2-0.6-0.5c0-0.2-0.1-5.5-0.1-5.5s-0.7-0.2-0.9-0.8c-0.2-0.6-0.2-0.9-0.2-0.9l0.4-0.1L453.1,853.9z"/>
			<circle class="st3" cx="457.8" cy="853" r="1.5"/>
			<path class="st3" d="M457.7,854.1L457.7,854.1c0.3,0,0.5,0.2,0.5,0.5l0.1,6.6c0,0.3-0.2,0.5-0.5,0.5l0,0c-0.3,0-0.5-0.2-0.5-0.5
				l-0.1-6.6C457.2,854.3,457.4,854.1,457.7,854.1z"/>
		</g>
		<path class="st1" d="M448.3,864.1l1.2,0c0,0,0,0.1-0.1,0.1l0.5,0c0,0,0-0.1,0.1-0.1l1.2,0l0-0.2l-2.9,0L448.3,864.1L448.3,864.1z
			 M448.6,863.9l2.2,0l0-0.3l-2.2,0L448.6,863.9L448.6,863.9z M449,863.7L449,863.7l1.5-0.1l0,0.1L449,863.7L449,863.7z
			 M448.4,863.1l0,0.3l2.8,0l0-0.3l-0.4,0l0,0.2l-2,0l0-0.2L448.4,863.1L448.4,863.1z M448.9,863.2l0-0.1l0.8,0
			c-0.4-0.1-0.8-0.1-1.3-0.2c0-0.1,0.1-0.1,0.1-0.2c0.4,0.1,0.8,0.1,1.1,0.2c0,0,0,0,0.1,0c-0.3-0.1-0.8-0.2-1.3-0.3
			c0.1-0.1,0.1-0.1,0.1-0.2c0.5,0.1,0.9,0.2,1.3,0.3c0,0,0-0.1,0-0.1c-0.4-0.2-0.9-0.3-1.5-0.4c0.1-0.1,0.1-0.1,0.2-0.2
			c0.3,0.1,0.5,0.1,0.7,0.2c0-0.1,0.1-0.1,0.1-0.2c0.3,0,0.5,0,0.6,0c0.1,0,0.2,0.1,0.2,0.1c0.1,0.1,0.1,0.1,0.1,0.2
			c0,0,0,0.1,0,0.1c0,0,0.1,0,0.2,0c0.2-0.2,0.4-0.3,0.6-0.4c0.1,0.1,0.2,0.1,0.3,0.2c-0.2,0.1-0.4,0.2-0.6,0.3
			c0.1,0,0.2,0.1,0.3,0.1l-0.2,0.2c-0.2-0.1-0.5-0.2-0.7-0.2c0,0.1-0.1,0.1-0.2,0.2c0.1,0,0.1,0,0.2,0.1l0.6,0l0,0.1L448.9,863.2
			L448.9,863.2z M449.9,862.6c0-0.1-0.1-0.2-0.2-0.2c-0.1,0-0.1,0-0.3,0C449.6,862.5,449.7,862.6,449.9,862.6L449.9,862.6z
			 M451.6,864.1l0.9,0l0-1.4l-0.5,0l0-0.2l-0.4,0L451.6,864.1L451.6,864.1z M452.5,862.6l0.8,0l0,0.2l-0.7,0l0,0.2l0.6,0l0,0.2
			l0.4,0l0-0.2l0.6,0l0-0.2l-0.6,0l0-0.2l0.8,0l0-0.2l-2,0L452.5,862.6L452.5,862.6z M452.6,863.6l0.7,0l0,0.2l-0.6,0l0,0.2l0.6,0
			l0,0.2l0.4,0l0-0.2l0.6,0l0-0.2l-0.6,0l0-0.2l0.7,0l0-0.2l-1.8,0L452.6,863.6L452.6,863.6z M452.2,863l0,0.9l-0.2,0l0-0.9
			L452.2,863L452.2,863z M455.8,864.1l0-0.2l0-0.2c0.1,0,0.1,0.1,0.2,0.1c0.2,0.2,0.3,0.4,0.4,0.6l0.4-0.1c-0.2-0.3-0.4-0.4-0.5-0.6
			c0.3,0,0.5,0,0.7,0c-0.1,0.1-0.1,0.2-0.2,0.2l0.3,0.1c0.2-0.2,0.4-0.4,0.6-0.6l-0.3-0.1c0,0-0.1,0.1-0.1,0.1c-0.4,0-0.7,0-1.1,0
			c-0.1,0-0.2,0-0.3,0l-0.1,0.2l0-0.1c-0.1,0-0.2,0-0.3,0l0.1,0.3l-0.4,0c0-0.1-0.1-0.2-0.1-0.2l0.4,0l0-0.9c0,0,0.2,0.1,0.4,0.2
			c0-0.1,0-0.2,0-0.3c-0.3-0.1-0.5-0.2-0.7-0.3l-0.2,0.2c0.1,0,0.1,0.1,0.1,0.2l0,0.9c0-0.1-0.1-0.1-0.1-0.2
			c-0.1,0.2-0.2,0.3-0.2,0.3c0.1,0.2,0.2,0.4,0.3,0.7l0.4,0c0-0.1,0-0.1-0.1-0.2L455.8,864.1L455.8,864.1z M456.3,862.3l0,0.1l0.8,0
			l0-0.1l0.4,0l0,1l-1.6,0l0-1L456.3,862.3L456.3,862.3z M457.1,863l-0.8,0l0-0.4l0.8,0L457.1,863L457.1,863z M459.3,864.1l0-0.2
			c-0.3-0.2-0.7-0.4-1.2-0.5c-0.1,0.1-0.1,0.1-0.2,0.2c0.1,0,0.3,0.1,0.4,0.1l-0.1,0.1l0.2,0.1c0.1,0,0.1-0.1,0.2-0.1
			c0.1,0,0.2,0.1,0.3,0.1l-0.6,0c-0.1,0-0.1-0.1-0.2-0.2c0,0-0.1,0.1-0.2,0.1c0.1,0.1,0.3,0.2,0.3,0.3l0.2,0c0,0,0-0.1-0.1-0.1
			l0.2,0l0,0.3l0.3,0l0-0.1l0.5,0l0-0.2l-0.5,0l0-0.1L459.3,864.1L459.3,864.1z M459.5,863.8l-0.3,0c-0.4-0.2-0.8-0.4-1.3-0.5
			c0.1-0.1,0.1-0.1,0.2-0.2c0.1,0,0.2,0.1,0.3,0.1l0-0.5c0-0.1,0-0.1-0.1-0.1l0.1-0.2c0.1,0,0.4,0.1,0.9,0.1l0,0.2
			c0.5-0.1,0.9-0.2,1.2-0.2l0.1,0.2l-0.4,0.1c0.1,0,0.2,0.1,0.4,0.1l-0.2,0.1c-0.2-0.1-0.4-0.1-0.5-0.2l-0.6,0.1l0.9,0l0,0.4
			c0.1,0,0.3-0.1,0.4-0.1c0.1,0.1,0.1,0.1,0.2,0.2c-0.4,0.1-0.8,0.2-1.1,0.3c0.1,0,0.2,0.1,0.3,0.1l0.5-0.2l0.2,0.2l-0.4,0.2
			c0.1,0.1,0.2,0.2,0.3,0.3l0,0.2l-1.2,0l0-0.2l0.8,0c-0.1-0.1-0.2-0.1-0.3-0.2c-0.2,0.1-0.4,0.1-0.5,0.2l-0.2-0.1l0.4-0.1
			C459.7,863.8,459.6,863.8,459.5,863.8L459.5,863.8L459.5,863.8z M459.4,863.6c-0.2-0.1-0.3-0.2-0.5-0.2l0.3,0c0,0,0,0.1-0.1,0.1
			l0.3,0c0,0,0-0.1,0-0.1l0.3,0C459.7,863.4,459.5,863.5,459.4,863.6L459.4,863.6z M460,863.2L460,863.2l-1.2-0.1l0,0.1L460,863.2
			L460,863.2z M460,862.9l-1.2,0l0,0.1L460,862.9L460,862.9L460,862.9z M459.2,862.7l-0.4-0.1l0,0.2l0.5,0L459.2,862.7L459.2,862.7z
			 M461.8,863.5c0-0.5-0.1-0.8-0.4-1.1c-0.1,0.1-0.2,0.2-0.3,0.3c0.2,0.2,0.3,0.5,0.3,0.8l0,0.8l2.6,0l0-0.3l-2.2,0L461.8,863.5
			L461.8,863.5z M461.9,863.8l0-0.3l0.9,0l0-0.7c0,0,0-0.1,0-0.1c0,0-0.1,0-0.2,0c-0.1,0-0.2,0-0.3,0c0-0.1,0.1-0.2,0.1-0.3
			c0.2,0,0.4,0,0.5,0c0.2,0,0.3,0,0.3,0.1c0.1,0.1,0.1,0.1,0.1,0.2l0,0.8l0.8,0l0,0.3L461.9,863.8z"/>
	</g>
</g>
<g id="btn16" class='btn'>
	<g>
		<path class="st2" d="M378.9,874.1c-3.1-4.6-8.9-14.1-8.7-19c0.1-5,4.4-8.9,9.5-8.7c5.1,0.1,9.1,4.3,9,9.2
			C388.5,860.5,381.4,871.1,378.9,874.1z"/>
		<g>
			<polygon class="st3" points="373.1,857.4 379.3,854.1 384.9,857.4 			"/>
			<rect x="376.3" y="853.6" class="st3" width="1.1" height="5.9"/>
			<rect x="380.4" y="853.6" class="st3" width="1.1" height="5.9"/>
			<rect x="373.7" y="857.3" class="st3" width="1.1" height="2.9"/>
			<rect x="383" y="857.4" class="st3" width="1.1" height="2.9"/>
			<rect x="374.5" y="859.2" class="st3" width="8.9" height="1.1"/>
			<rect x="378.3" y="857.6" class="st3" width="1.1" height="2.3"/>
			<polygon class="st3" points="375.3,853.9 379.2,850.6 382.7,853.9 			"/>
		</g>
	</g>
</g>
<g id="btn15" class='btn'>
	<g>
		<path class="st2" d="M860.8,824.8c-3.1-4.6-8.9-14.1-8.7-19c0.1-5,4.4-8.8,9.5-8.7c5.1,0.1,9.1,4.3,9,9.2
			C870.4,811.3,863.2,821.8,860.8,824.8z"/>
		<g>
			<polygon class="st3" points="855,808.2 861.1,804.8 866.8,808.2 			"/>
			<rect x="858.2" y="804.3" class="st3" width="1.1" height="5.9"/>
			<rect x="862.3" y="804.3" class="st3" width="1.1" height="5.9"/>
			<rect x="855.6" y="808" class="st3" width="1.1" height="2.9"/>
			<rect x="864.9" y="808.1" class="st3" width="1.1" height="2.9"/>
			<rect x="856.3" y="809.9" class="st3" width="8.9" height="1.1"/>
			<rect x="860.2" y="808.3" class="st3" width="1.1" height="2.3"/>
			<polygon class="st3" points="857.2,804.6 861,801.3 864.5,804.6 			"/>
		</g>
	</g>
</g>
<g id="btn14" class='btn'>
	<g>
		<path class="st2" d="M423.5,811.6c-3.1-4.6-8.9-14.1-8.7-19c0.1-5,4.4-8.8,9.5-8.7c5.1,0.1,9.1,4.3,9,9.2
			C433,798.1,425.9,808.6,423.5,811.6z"/>
		<g>
			<polygon class="st3" points="421.5,791.2 425.9,791.2 423.8,789.4 			"/>
			<polygon class="st3" points="420.2,791.5 420.2,792 420.6,792 420.6,798.7 420.2,798.7 420.2,799.2 427.2,799.2 427.2,798.7 
				426.9,798.7 426.9,792 427.3,792 427.3,791.5 			"/>
			<rect x="421.5" y="792.4" class="st2" width="1" height="1.3"/>
			<rect x="421.5" y="794.2" class="st2" width="1" height="1.3"/>
			<rect x="421.5" y="795.8" class="st2" width="1" height="1.3"/>
			<rect x="421.5" y="797.7" class="st2" width="1" height="1.3"/>
			<rect x="423.2" y="792.4" class="st2" width="1" height="1.3"/>
			<rect x="423.2" y="794.2" class="st2" width="1" height="1.3"/>
			<rect x="423.2" y="795.8" class="st2" width="1" height="1.3"/>
			<rect x="423.1" y="797.7" class="st2" width="1" height="1.3"/>
			<rect x="424.7" y="792.4" class="st2" width="1" height="1.3"/>
			<rect x="424.7" y="794.2" class="st2" width="1" height="1.3"/>
			<rect x="424.7" y="795.8" class="st2" width="1" height="1.3"/>
			<rect x="424.7" y="797.7" class="st2" width="1" height="1.3"/>
		</g>
	</g>
</g>
<g id="btn13" class='btn'>
	<g>
		<path class="st2" d="M467.9,791c-3.1-4.6-8.9-14.1-8.7-19c0.1-5,4.4-8.8,9.5-8.7c5.1,0.1,9.1,4.3,9,9.2
			C477.5,777.5,470.4,788,467.9,791z"/>
		<g>
			<polygon class="st3" points="465.6,769.8 470,769.8 467.9,768 			"/>
			<polygon class="st3" points="464.2,770.1 464.2,770.6 464.6,770.6 464.6,777.3 464.2,777.3 464.2,777.8 471.2,777.8 471.2,777.3 
				470.9,777.3 470.9,770.6 471.3,770.6 471.3,770.1 			"/>
			<rect x="465.6" y="771" class="st2" width="1" height="1.3"/>
			<rect x="465.6" y="772.8" class="st2" width="1" height="1.3"/>
			<rect x="465.6" y="774.4" class="st2" width="1" height="1.3"/>
			<rect x="465.5" y="776.3" class="st2" width="1" height="1.3"/>
			<rect x="467.2" y="771" class="st2" width="1" height="1.3"/>
			<rect x="467.2" y="772.8" class="st2" width="1" height="1.3"/>
			<rect x="467.2" y="774.4" class="st2" width="1" height="1.3"/>
			<rect x="467.2" y="776.3" class="st2" width="1" height="1.3"/>
			<rect x="468.7" y="771" class="st2" width="1" height="1.3"/>
			<rect x="468.7" y="772.8" class="st2" width="1" height="1.3"/>
			<rect x="468.7" y="774.4" class="st2" width="1" height="1.3"/>
			<rect x="468.7" y="776.3" class="st2" width="1" height="1.3"/>
		</g>
	</g>
</g>
<g id="btn12" class='btn'>
	<g>
		<path class="st2" d="M503.5,795c-3.1-4.6-8.9-14.1-8.7-19c0.1-5,4.4-8.9,9.5-8.7c5.1,0.1,9.1,4.3,9,9.2
			C513.1,781.5,505.9,792,503.5,795z"/>
		<g>
			<polygon class="st3" points="501.8,774 506.2,774 504.1,772.3 			"/>
			<polygon class="st3" points="500.4,774.3 500.4,774.8 500.8,774.8 500.8,781.5 500.4,781.5 500.4,782 507.5,782 507.5,781.5 
				507.1,781.5 507.2,774.8 507.6,774.8 507.6,774.3 			"/>
			<rect x="501.8" y="775.2" class="st2" width="1" height="1.3"/>
			<rect x="501.8" y="777" class="st2" width="1" height="1.3"/>
			<rect x="501.8" y="778.7" class="st2" width="1" height="1.3"/>
			<rect x="501.8" y="780.5" class="st2" width="1" height="1.3"/>
			<rect x="503.4" y="775.2" class="st2" width="1" height="1.3"/>
			<rect x="503.4" y="777" class="st2" width="1" height="1.3"/>
			<rect x="503.4" y="778.7" class="st2" width="1" height="1.3"/>
			<rect x="503.4" y="780.5" class="st2" width="1" height="1.3"/>
			<rect x="504.9" y="775.2" class="st2" width="1" height="1.3"/>
			<rect x="504.9" y="777" class="st2" width="1" height="1.3"/>
			<rect x="504.9" y="778.7" class="st2" width="1" height="1.3"/>
			<rect x="504.9" y="780.5" class="st2" width="1" height="1.3"/>
		</g>
	</g>
</g>
<g id="btn11" class='btn'>
	<g>
		<path class="st2" d="M521.4,737.2c-3.1-4.6-8.9-14.1-8.7-19c0.1-5,4.4-8.9,9.5-8.7c5.1,0.1,9.1,4.3,9,9.2
			C531,723.7,523.9,734.2,521.4,737.2z"/>
		<g>
			<polygon class="st3" points="519.1,716 523.5,716 521.4,714.2 			"/>
			<polygon class="st3" points="517.7,716.3 517.7,716.8 518.1,716.8 518.1,723.5 517.7,723.5 517.7,724 524.7,724 524.7,723.5 
				524.4,723.5 524.4,716.8 524.8,716.8 524.8,716.3 			"/>
			<rect x="519.1" y="717.2" class="st2" width="1" height="1.3"/>
			<rect x="519.1" y="719" class="st2" width="1" height="1.3"/>
			<rect x="519" y="720.6" class="st2" width="1" height="1.3"/>
			<rect x="519" y="722.5" class="st2" width="1" height="1.3"/>
			<rect x="520.7" y="717.2" class="st2" width="1" height="1.3"/>
			<rect x="520.7" y="718.9" class="st2" width="1" height="1.3"/>
			<rect x="520.7" y="720.6" class="st2" width="1" height="1.3"/>
			<rect x="520.7" y="722.5" class="st2" width="1" height="1.3"/>
			<rect x="522.2" y="717.2" class="st2" width="1" height="1.3"/>
			<rect x="522.2" y="719" class="st2" width="1" height="1.3"/>
			<rect x="522.2" y="720.6" class="st2" width="1" height="1.3"/>
			<rect x="522.2" y="722.5" class="st2" width="1" height="1.3"/>
		</g>
	</g>
</g>
<g id="btn10_" class='btn'>
	<g>
		<path class="st2" d="M514.6,699.1c-3.1-4.6-8.9-14.1-8.7-19c0.1-5,4.4-8.9,9.5-8.7c5.1,0.1,9.1,4.3,9,9.2
			C524.2,685.5,517,696.1,514.6,699.1z"/>
		<g>
			<polygon class="st3" points="508.8,682.4 515,679.1 520.6,682.4 			"/>
			<rect x="512" y="678.6" class="st3" width="1.1" height="5.9"/>
			<rect x="516.1" y="678.6" class="st3" width="1.1" height="5.9"/>
			<rect x="509.4" y="682.3" class="st3" width="1.1" height="2.9"/>
			<rect x="518.7" y="682.4" class="st3" width="1.1" height="2.9"/>
			<rect x="510.1" y="684.2" class="st3" width="8.9" height="1.1"/>
			<rect x="514" y="682.6" class="st3" width="1.1" height="2.3"/>
			<polygon class="st3" points="511,678.9 514.8,675.6 518.3,678.9 			"/>
		</g>
	</g>
</g>
<g id="btn9_" class='btn'>
	<g>
		<path class="st2" d="M551.7,659.9c-3.1-4.6-8.9-14.1-8.7-19c0.1-5,4.4-8.9,9.5-8.7c5.1,0.1,9.1,4.3,9,9.2S554.2,656.9,551.7,659.9
			z"/>
		<g>
			<path class="st3" d="M549.3,636.3l0.2,0c0.1,0,0.2,0.1,0.2,0.2l0,2c0,0.1-0.1,0.2-0.2,0.2l-0.2,0c-0.1,0-0.2-0.1-0.2-0.2l0-2
				C549.1,636.4,549.2,636.3,549.3,636.3z"/>
			<path class="st3" d="M550.2,636.3l0.2,0c0.1,0,0.2,0.1,0.2,0.2l0,2.1c0,0.1-0.1,0.2-0.2,0.2l-0.2,0c-0.1,0-0.2-0.1-0.2-0.2l0-2.1
				C550,636.3,550.1,636.3,550.2,636.3z"/>
			<path class="st3" d="M551,636.3l0.2,0c0.1,0,0.2,0.1,0.2,0.2l0,2c0,0.1-0.1,0.2-0.2,0.2l-0.2,0c-0.1,0-0.2-0.1-0.2-0.2l0-2
				C550.8,636.3,550.9,636.3,551,636.3z"/>
			<path class="st3" d="M551.9,636.2l0.2,0c0.1,0,0.2,0.1,0.2,0.2l0,2c0,0.1-0.1,0.2-0.2,0.2l-0.2,0c-0.1,0-0.2-0.1-0.2-0.2l0-2
				C551.7,636.3,551.8,636.2,551.9,636.2z"/>
			<path class="st3" d="M549.7,638.5c0,0,0.1,0.2,0.3,0c0.2-0.2,0.4-0.1,0.4-0.1l0.1,0.1c0,0,0.2,0.2,0.4,0c0.2-0.2,0.5,0,0.5,0
				s0.2,0.2,0.4,0c0.2-0.2,0.5-0.1,0.5-0.1s0,0.7-0.3,1.1c-0.3,0.4-0.7,0.5-0.7,0.5l0.1,5.6c0,0-0.2,0.4-0.5,0.4
				c-0.3,0-0.6-0.2-0.6-0.5c0-0.2-0.1-5.5-0.1-5.5s-0.7-0.2-0.9-0.8c-0.2-0.6-0.2-0.9-0.2-0.9l0.4-0.1L549.7,638.5z"/>
			<circle class="st3" cx="554.4" cy="637.7" r="1.5"/>
			<path class="st3" d="M554.3,638.7L554.3,638.7c0.3,0,0.5,0.2,0.5,0.5l0.1,6.6c0,0.3-0.2,0.5-0.5,0.5l0,0c-0.3,0-0.5-0.2-0.5-0.5
				l-0.1-6.6C553.8,638.9,554,638.7,554.3,638.7z"/>
		</g>
		<path class="st1" d="M548.8,647.5l0,0.3c-0.3,0.3-0.7,0.5-1.2,0.7c-0.1-0.1-0.1-0.2-0.2-0.3c0.1,0,0.3-0.1,0.4-0.1l-0.1-0.1
			l0.2-0.2c0.1,0,0.1,0.1,0.2,0.2c0.1-0.1,0.2-0.1,0.3-0.2l-0.6,0c-0.1,0.1-0.1,0.1-0.2,0.2c0,0-0.1-0.1-0.2-0.2
			c0.2-0.1,0.3-0.3,0.3-0.5l0.2,0.1c0,0,0,0.1-0.1,0.1l0.2,0l0-0.5l0.3,0l0,0.1l0.5,0l0,0.2l-0.5,0l0,0.1L548.8,647.5L548.8,647.5z
			 M549,647.9l-0.3,0c-0.4,0.3-0.8,0.6-1.3,0.8c0.1,0.1,0.1,0.2,0.2,0.3c0.1,0,0.2-0.1,0.3-0.2l0,0.7c0,0.1,0,0.2-0.1,0.2l0.1,0.2
			c0.1,0,0.4-0.1,0.9-0.2l0-0.2c0.5,0.1,0.9,0.3,1.2,0.4l0.1-0.2l-0.4-0.1c0.1,0,0.3-0.1,0.4-0.2l-0.2-0.2c-0.2,0.1-0.4,0.2-0.5,0.3
			l-0.6-0.1l0.9,0l0-0.6c0.1,0.1,0.3,0.1,0.4,0.1c0.1-0.1,0.1-0.2,0.2-0.3c-0.4-0.1-0.8-0.2-1.1-0.4c0.1,0,0.2-0.1,0.3-0.1l0.5,0.3
			l0.2-0.3l-0.4-0.2c0.1-0.1,0.2-0.3,0.3-0.4l0-0.3l-1.2,0l0,0.3l0.8,0c-0.1,0.1-0.2,0.2-0.3,0.3c-0.2-0.1-0.4-0.2-0.5-0.2l-0.2,0.2
			l0.4,0.2C549.2,647.9,549.1,647.9,549,647.9L549,647.9L549,647.9z M548.9,648.2c-0.2,0.1-0.3,0.2-0.5,0.3l0.3,0
			c0-0.1,0-0.1-0.1-0.2l0.3,0c0,0,0,0.1,0.1,0.2l0.3,0C549.2,648.4,549.1,648.3,548.9,648.2L548.9,648.2z M549.5,648.7l0,0.1l-1.2,0
			l0-0.1L549.5,648.7L549.5,648.7z M549.5,649.2l-1.2,0l0-0.1l1.2,0L549.5,649.2L549.5,649.2z M548.7,649.5l-0.4,0.1l0-0.2l0.5,0
			L548.7,649.5L548.7,649.5z M551.8,647.3l0,0.3l-0.1,0.6c-0.1,0-0.2,0-0.3,0l0.1-0.5l-0.4,0c0,0.1-0.1,0.2-0.1,0.3l0.4,0l0,1.1
			c0.1-0.1,0.2-0.2,0.4-0.3c0,0.1,0,0.3,0,0.4c-0.2,0.2-0.5,0.4-0.7,0.6l-0.2-0.3c0.1,0,0.1-0.1,0.1-0.2l0-1.3
			c0,0.1-0.1,0.2-0.1,0.3c-0.1-0.2-0.1-0.3-0.2-0.5c0.1-0.3,0.2-0.6,0.3-1l0.4,0c0,0.1,0,0.2-0.1,0.3L551.8,647.3L551.8,647.3z
			 M552.4,647.9c0,0.4-0.1,0.7-0.2,1c-0.1,0.3-0.3,0.5-0.6,0.7c0.2,0.1,0.3,0.3,0.3,0.3c0.4-0.3,0.6-0.6,0.7-1
			c0.2,0.4,0.4,0.7,0.7,0.9c0.1-0.2,0.2-0.3,0.2-0.4c-0.4-0.2-0.7-0.5-0.8-1c0-0.2,0-0.3,0-0.5L552.4,647.9L552.4,647.9z
			 M553.5,647.4l-1.1,0c0-0.1,0-0.3,0.1-0.4l-0.4,0c-0.1,0.4-0.2,0.9-0.3,1.3c0.1,0,0.3,0.1,0.4,0.1c0.1-0.2,0.1-0.4,0.2-0.6l0.8,0
			l-0.1,0.5l0.4,0.1l0.1-0.6L553.5,647.4L553.5,647.4z M554.5,649.3l2.3,0l0,0.4l-2.7,0.1l-0.1-2.6l2.6-0.1l0,0.4l-2.2,0
			L554.5,649.3L554.5,649.3z M554.6,647.8c0.2,0.2,0.4,0.4,0.7,0.6c-0.2,0.2-0.4,0.4-0.7,0.6c0.2,0.1,0.3,0.3,0.3,0.3
			c0.2-0.2,0.5-0.4,0.7-0.6c0.2,0.2,0.4,0.4,0.6,0.6l0.3-0.3l-0.7-0.6c0.2-0.2,0.3-0.4,0.5-0.6l-0.4-0.2c-0.1,0.2-0.3,0.4-0.5,0.6
			l-0.7-0.6L554.6,647.8z"/>
	</g>
</g>
<g id="btn8" class='btn'>
	<g>
		<path class="st2" d="M525.7,583.3c-3.1-4.6-8.9-14.1-8.7-19c0.1-5,4.4-8.8,9.5-8.7c5.1,0.1,9.1,4.3,9,9.2
			C535.2,569.8,528.1,580.3,525.7,583.3z"/>
		<polygon class="st3" points="530.6,563.3 530.6,563.3 530.5,563.3 530.5,563.3 530.5,563.4 530.5,563.4 530.4,563.4 530.4,563.4 
			530.4,563.4 530.4,563.4 530.3,563.4 530.3,563.4 530.3,563.5 530.3,563.5 530.2,563.5 530.2,563.5 530.2,563.5 530.1,563.5 
			530.1,563.5 530.1,563.5 530.1,563.6 530.1,563.6 530,563.6 530,563.6 530,563.6 530,563.6 529.9,563.6 529.9,563.6 529.9,563.7 
			529.9,563.7 529.9,563.7 529.8,563.7 529.8,563.7 529.8,563.7 529.8,563.7 529.8,563.7 529.7,563.8 529.7,563.8 529.7,563.8 
			529.7,563.8 529.6,563.8 529.6,563.8 529.6,563.8 529.6,563.8 529.6,563.9 529.5,563.9 529.5,563.9 529.5,563.9 529.5,563.9 
			529.5,563.9 529.4,563.9 529.4,563.9 529.4,564 529.4,564 529.4,564 529.3,564 529.3,564 529.3,564 529.2,564 529.1,564 
			529.1,564 529.1,564 529.1,564 529,564 528.7,564 528.7,564 528.6,564 528.6,564 528.6,563.9 528.6,563.9 528.5,563.9 
			528.5,563.9 528.5,563.9 528.5,563.9 528.5,563.8 528.5,563.8 528.5,563.7 528.5,563.7 528.4,563.7 528.4,563.7 528.4,563.7 
			528.4,563.7 528.4,563.9 528.4,563.9 528.4,563.9 528.5,564 528.5,564 528.5,564 528.5,564 528.5,564 528.5,564 528.5,564 
			528.6,564 528.6,564.1 528.6,564.1 528.5,564.1 528.5,564.1 528.5,564.1 528.5,564.1 528.5,564.1 528.5,564.1 528.5,564.2 
			528.4,564.2 528.4,564.2 528.4,564.2 528.3,564.2 528.2,564.2 528.1,564.2 528.1,564.2 528.1,564.3 528.1,564.3 528.1,564.3 
			528,564.3 528,564.3 528,564.3 528,564.3 528,564.4 528,564.5 528,564.5 528,564.5 528,564.6 528,564.6 528.1,564.6 528.1,564.7 
			528.1,564.7 528.1,564.8 528,564.8 528,564.8 528,564.8 528,564.8 528,564.8 528,564.8 528,564.9 528,564.9 528,564.9 
			527.9,564.9 527.9,564.9 527.9,564.9 527.9,564.9 527.9,564.9 527.9,564.9 527.9,565 527.9,565 527.9,565 527.8,565 527.8,565 
			527.8,565 527.8,565 527.8,565 527.8,565.1 527.8,565.1 527.8,565.1 527.7,565.1 527.7,565.1 527.7,565.1 527.7,565.1 
			527.7,565.2 527.7,565.2 527.7,565.2 527.7,565.2 527.7,565.2 527.6,565.2 527.6,565.2 527.6,565.2 527.6,565.3 527.6,565.3 
			527.6,565.3 527.6,565.3 527.6,565.3 527.5,565.3 527.5,565.3 527.5,565.4 527.5,565.4 527.5,565.4 527.5,565.4 527.5,565.4 
			527.5,565.4 527.5,565.4 527.4,565.5 527.4,565.5 527.4,565.5 527.4,565.5 527.4,565.5 527.4,565.6 527.4,565.6 527.4,565.6 
			527.3,565.6 527.3,565.7 527.3,565.7 527.3,565.8 527.3,565.8 527.3,565.9 527.3,566 527.3,566 527.2,566 527.2,566 527.2,566 
			527.1,566 527,566 527,566 526.9,566 526.8,566 526.7,566 526.6,566 526.2,566 526.1,566 526.1,566 526,566 526,566 526,566 
			525.9,566 525.9,566 525.8,566 525.8,565.9 525.9,565.9 526,565.9 526.1,565.9 526.2,565.9 526.2,565.9 526.2,565.9 526.3,565.9 
			526.3,565.8 526.3,565.8 526.3,565.8 526.3,565.8 526.3,565.7 526.3,565.6 526.3,565.5 526.3,565.3 526.3,565.3 526.3,565.2 
			526.3,565.2 526.3,565.1 526.2,565.1 526.2,565.1 526.2,565 526.2,565 526.2,565 526.2,565 526.2,565 526,565 525.9,565 
			525.7,565 525.6,565 525.5,565 525.4,565 525.2,565.1 525.1,565.1 525,565.1 524.9,565.1 524.8,565.1 524.7,565.1 524.6,565.1 
			524.5,565.2 524.4,565.2 524.3,565.2 524.2,565.2 524.1,565.2 524,565.2 523.8,565.2 523.7,565.3 523.7,565.2 523.7,565.2 
			523.7,565.1 523.7,565.1 523.5,565.1 523.4,565.1 523.4,565.2 523.4,565.2 523.4,565.2 523.4,565.3 523.4,565.3 523.4,565.3 
			523.2,565.3 523.2,565.3 523.2,565.3 523.2,565.4 523.1,565.4 523.1,565.4 523.1,565.4 523.1,565.4 523.1,565.4 523.1,565.4 
			523.1,565.5 523.1,565.5 523,565.5 523,565.5 523,565.6 523,565.6 523,565.6 523,565.7 523,565.7 523,565.7 522.9,565.7 
			522.9,565.7 522.9,565.7 522.8,565.8 522.8,565.8 522.8,565.8 522.8,565.8 522.8,565.8 522.8,565.9 522.8,565.8 522.7,565.8 
			522.7,565.8 522.7,565.8 522.6,565.8 522.6,565.8 522.6,565.9 522.6,565.9 522.6,565.9 522.6,565.9 522.6,565.9 522.6,566 
			522.5,566 522.5,566 522.5,566 522.5,566 522.5,566 522.4,566 522.3,566 522.2,566 522.2,566 522.1,566 522.1,566.1 522.1,566.1 
			522.1,566.1 522.1,566.1 522,566.1 522,566.1 522,566.1 522,566.2 522,566.2 522,566.2 522,566.2 522,566.2 521.9,566.3 
			521.9,566.3 521.9,566.3 521.9,566.3 521.8,566.3 521.7,566.3 521.7,566.3 521.6,566.3 521.6,566.3 521.6,566.3 521.6,566.3 
			521.5,566.3 521.5,566.3 521.5,566.4 521.5,566.4 521.5,566.4 521.5,566.4 521.5,566.4 521.5,566.4 521.4,566.4 521.4,566.5 
			521.4,566.5 521.4,566.5 521.4,566.5 521.4,566.5 521.4,566.6 521.4,566.6 521.4,566.6 521.3,566.7 521.3,566.7 521.3,566.8 
			521.3,566.8 521.3,566.8 521.2,566.8 521.2,566.8 520.9,566.8 520.8,566.8 520.7,566.8 520.6,566.8 520.6,566.8 520.6,566.8 
			520.5,566.8 520.5,566.9 520.5,566.9 520.5,566.9 520.5,566.9 520.5,566.9 520.5,567 520.5,567 520.5,567 520.5,567 520.6,567 
			520.6,567 520.6,566.9 520.7,566.9 520.7,566.9 520.8,566.9 520.9,566.9 521.1,566.9 521.2,566.9 521.2,566.9 521.3,566.9 
			521.3,566.9 521.3,566.9 521.3,567 521.3,567 521.3,567 521.4,567 521.4,567.1 521.4,567.1 521.4,567.1 521.4,567.1 521.4,567.2 
			521.4,567.2 521.3,567.2 521.3,567.3 521.4,567.3 521.4,567.3 521.4,567.3 521.4,567.3 521.4,567.4 521.4,567.4 521.4,567.4 
			521.4,567.4 521.5,567.4 521.5,567.4 521.5,567.4 521.5,567.4 521.5,567.4 521.6,567.5 521.6,567.5 521.6,567.5 521.6,567.5 
			521.6,567.5 521.7,567.5 521.7,567.5 521.7,567.5 521.8,567.5 521.8,567.5 521.8,567.5 521.8,567.5 521.8,567.5 521.8,567.5 
			521.8,567.5 521.8,567.6 521.8,567.6 521.8,567.6 521.8,567.6 521.8,567.6 521.8,567.6 521.8,567.6 521.7,567.7 521.7,567.7 
			521.7,567.7 521.7,567.8 521.7,567.8 521.7,567.8 521.7,567.8 521.6,567.8 521.6,567.9 521.6,567.9 521.5,567.9 521.5,567.9 
			521.5,567.9 521.4,567.9 521.4,567.9 521.4,567.9 521.3,568 521.3,568 521.3,568 521.3,568 521.2,568 521.2,568 521.2,568 
			521.2,568 521.2,568.1 521.2,568.1 521.2,568.1 521.1,568.1 521,568.1 521,568.1 521,568.1 521,568.1 521,568.2 520.9,568.2 
			520.9,568.2 520.9,568.2 520.9,568.2 520.9,568.2 520.8,568.2 520.8,568.2 520.7,568.2 520.7,568.2 520.7,568.2 520.6,568.2 
			520.6,568.2 520.6,568.2 520.6,568.2 520.6,568.2 520.6,568.3 520.6,568.3 520.6,568.3 520.6,568.3 520.6,568.4 520.6,568.4 
			520.6,568.4 520.6,568.4 520.6,568.4 521.9,568.4 522.1,568.4 522.1,568.4 522.2,568.3 522.3,568.3 522.3,568.3 522.4,568.3 
			522.4,568.3 522.4,568.3 522.5,568.3 522.5,568.3 522.5,568.2 522.5,568.2 522.6,568.2 522.6,568.2 522.6,568.2 522.6,568.2 
			522.6,568.2 522.6,568.2 522.6,568.1 522.6,568.1 522.6,568.1 522.7,568.1 522.7,568.1 522.7,568.1 522.7,568 522.7,568 
			522.7,568 522.7,568 522.7,568 522.7,567.9 522.8,567.9 522.8,567.9 522.8,567.9 522.8,567.9 522.8,567.8 522.8,567.8 
			522.8,567.8 522.8,567.8 522.9,567.8 522.9,567.7 522.9,567.7 522.9,567.7 522.9,567.7 522.9,567.7 522.9,567.6 522.9,567.6 
			522.9,567.6 523,567.6 523,567.6 523,567.6 523,567.6 523,567.6 523,567.7 523.1,567.7 523.1,567.7 523.1,567.7 523.2,567.7 
			523.2,567.7 523.2,567.7 523.3,567.7 523.4,567.7 523.5,567.8 523.6,567.8 523.6,567.8 523.7,567.8 523.7,567.8 523.8,567.8 
			523.8,567.8 523.9,567.8 523.9,567.8 523.9,567.9 523.9,567.9 524,567.9 524,567.9 524,567.9 524,567.9 524.1,567.9 524.1,567.9 
			524.1,567.9 524.1,568 524.2,568 524.2,568 524.2,568 524.2,568 524.2,568 524.2,568 524.3,568 524.3,568 524.3,568.1 
			524.3,568.1 524.3,568.1 524.3,568.1 524.4,568.1 524.4,568.1 524.4,568.1 524.4,568.1 524.4,568.2 524.4,568.2 524.4,568.2 
			524.4,568.2 524.5,568.2 524.5,568.2 524.5,568.2 524.6,568.2 524.6,568.2 524.6,568.2 524.6,568.2 524.7,568.2 524.7,568.2 
			524.7,568.1 524.7,568.1 524.7,568.1 524.7,568.1 524.7,568.1 524.7,568.2 524.8,568.2 524.8,568.2 524.8,568.2 524.8,568.2 
			524.8,568.3 524.8,568.4 524.8,568.4 524.9,568.5 524.9,568.5 524.9,568.5 524.9,568.5 524.9,568.5 524.9,568.5 524.9,568.6 
			524.9,568.6 524.9,568.6 525,568.6 525,568.6 525,568.6 525,568.6 525,568.6 525,568.7 525,568.7 525,568.7 525.1,568.7 
			525.1,568.7 525.1,568.7 525.1,568.7 525.1,568.7 525.1,568.8 525.1,568.8 525.2,568.8 525.2,568.8 525.2,568.8 525.2,568.8 
			525.3,568.8 525.3,568.8 525.3,568.8 525.3,568.7 525.3,568.7 525.3,568.7 525.3,568.7 525.3,568.6 525.3,568.6 525.3,568.5 
			525.3,568.5 525.3,568.5 525.3,568.5 525.3,568.5 525.3,568.4 525.2,568.4 525.2,568.4 525.2,568.4 525.2,568.4 525.2,568.4 
			525.2,568.4 525.2,568.3 525.2,568.3 525.1,568.3 525.1,568.3 525.1,568.3 525.1,568.3 525.1,568.2 525.1,568.2 525.1,568.2 
			525,568.2 525,568.2 525,568.2 524.9,568.2 524.9,568.2 524.9,568.2 524.9,568.1 524.9,568.1 524.8,568.1 524.8,568.1 
			524.8,568.1 524.8,568.1 524.8,568.1 524.8,568 524.8,568 524.8,568 524.8,568 524.9,568 524.9,568 524.9,568 524.9,568 
			524.9,568 524.9,567.9 525,567.9 525,567.9 525,567.9 525,567.9 525,567.9 525,567.9 525.1,567.9 525.1,567.8 525.1,567.8 
			525.1,567.8 525.1,567.8 525.1,567.8 525.1,567.8 525.1,567.8 525.2,567.8 525.2,567.7 525.2,567.7 525.2,567.7 525.2,567.7 
			525.2,567.7 525.2,567.7 525.2,567.6 525.3,567.6 525.3,567.5 525.3,567.5 525.3,567.5 525.3,567.5 525.3,567.5 525.4,567.5 
			525.4,567.4 525.4,567.4 525.4,567.4 525.4,567.4 525.5,567.4 525.5,567.4 525.5,567.4 525.5,567.4 525.5,567.3 525.5,567.3 
			525.6,567.3 525.6,567.3 525.6,567.3 525.6,567.3 525.6,567.3 525.7,567.3 525.7,567.3 525.7,567.2 525.7,567.2 525.7,567.2 
			525.8,567.2 525.8,567.2 525.9,567.2 526.3,567.2 526.5,567.2 526.9,567.2 527,567.2 527.1,567.1 527.1,567.1 527.2,567.1 
			527.2,567.1 527.3,567.1 527.3,567.1 527.4,567.1 527.4,567 527.5,567 527.6,567 527.6,567 527.7,567 527.7,567 527.8,567 
			527.8,567 527.8,566.9 527.9,566.9 527.9,566.9 527.9,566.9 527.9,566.9 527.9,566.9 527.9,566.9 527.9,566.9 527.9,566.8 
			528,566.8 528,566.8 528,566.8 528,566.7 528,566.7 528,566.7 528,566.6 528,566.6 528,566.5 528.1,566.5 528.1,566.4 
			528.1,566.3 528.1,566.3 528.1,566.2 528.1,566.1 528.1,566.1 528.1,566.1 528.1,566 528.2,566 528.2,565.9 528.2,565.9 
			528.2,565.8 528.2,565.8 528.2,565.7 528.2,565.7 528.2,565.6 528.2,565.6 528.3,565.6 528.3,565.5 528.3,565.5 528.3,565.5 
			528.3,565.4 528.3,565.4 528.3,565.3 528.3,565.3 528.3,565.3 528.4,565.2 528.4,565.2 528.4,565.2 528.4,565.1 528.4,565.1 
			528.4,565.1 528.4,565.1 528.4,565 528.5,565 528.5,565 528.5,565 528.5,564.9 528.5,564.9 528.5,564.9 528.5,564.9 528.5,564.9 
			528.5,564.9 528.6,564.9 528.6,564.8 528.6,564.8 528.6,564.8 528.6,564.8 528.6,564.8 528.6,564.8 528.7,564.8 528.7,564.9 
			528.7,564.9 528.7,564.9 528.7,564.9 528.7,565 528.7,565 528.8,565 528.8,565 528.8,565 528.8,565 528.8,565 528.9,565 
			528.9,565 528.9,565 528.9,565 528.9,565 528.9,565 528.9,565 528.8,565 528.8,564.9 528.8,564.9 528.8,564.9 528.8,564.9 
			528.8,564.9 528.7,564.9 528.7,564.9 528.7,564.8 528.7,564.8 528.7,564.7 528.7,564.7 529.1,564.7 529.1,564.7 529.1,564.7 
			529.3,564.7 529.4,564.7 529.4,564.7 529.5,564.7 529.5,564.7 529.5,564.7 529.6,564.7 529.6,564.7 529.6,564.8 529.7,564.8 
			529.7,564.8 529.7,564.8 529.7,564.8 529.8,564.8 529.8,564.8 529.8,564.8 529.8,564.8 529.8,564.9 529.9,564.9 529.9,564.9 
			529.9,564.9 529.9,564.9 530,564.9 530.2,564.9 530.4,564.9 530.6,564.9 530.7,564.9 530.9,565 531,565 531.2,565 531.6,565 
			531.6,565 531.6,564.9 531.6,564.9 531.6,564.9 531.6,564.9 531.6,564.8 531.6,564.8 531.6,564.3 531.6,564 531.6,564 531.6,564 
			531.6,563.9 531.6,563.9 531.6,563.9 531.6,563.9 531.5,563.9 531.5,563.9 531.5,563.9 531.5,563.9 531.5,563.9 531.5,563.8 
			531.4,563.8 531.4,563.8 531.3,563.8 531.3,563.8 531.1,563.8 530.7,563.8 530.3,563.8 530.2,563.8 530.3,563.8 530.3,563.8 
			530.3,563.8 530.3,563.8 530.3,563.7 530.4,563.7 530.4,563.7 530.4,563.7 530.5,563.7 530.5,563.7 530.5,563.7 530.5,563.7 
			530.6,563.6 530.6,563.6 530.6,563.6 530.7,563.6 530.7,563.6 530.8,563.6 530.8,563.6 530.8,563.6 530.9,563.5 531,563.5 
			531,563.5 531.1,563.5 531.2,563.5 531.2,563.5 531.2,563.5 531.2,563.5 531.2,563.4 531.2,563.4 531.2,563.4 531.2,563.4 
			531.2,563.4 531.2,563.4 531.1,563.4 531.1,563.3 531.1,563.3 531,563.3 531,563.3 530.9,563.3 530.9,563.3 530.7,563.3 		"/>
	</g>
</g>
<g id="btn7" class='btn'>
	<g>
		<path class="st2" d="M620.4,617.9c-2.7-4-7.8-12.3-7.6-16.6c0.1-4.3,3.8-7.7,8.3-7.6c4.5,0.1,8,3.7,7.8,8.1
			C628.8,606.1,622.5,615.3,620.4,617.9z"/>
		<g>
			<polygon class="st3" points="618.7,600.5 623.1,600.5 621,598.8 			"/>
			<polygon class="st3" points="617.4,600.8 617.4,601.3 617.8,601.3 617.8,608 617.3,608 617.3,608.5 624.4,608.5 624.4,608 
				624,608 624.1,601.3 624.5,601.3 624.5,600.8 			"/>
			<rect x="618.7" y="601.7" class="st2" width="1" height="1.3"/>
			<rect x="618.7" y="603.5" class="st2" width="1" height="1.3"/>
			<rect x="618.7" y="605.1" class="st2" width="1" height="1.3"/>
			<rect x="618.7" y="607" class="st2" width="1" height="1.3"/>
			<rect x="620.4" y="601.7" class="st2" width="1" height="1.3"/>
			<rect x="620.4" y="603.5" class="st2" width="1" height="1.3"/>
			<rect x="620.3" y="605.1" class="st2" width="1" height="1.3"/>
			<rect x="620.3" y="607" class="st2" width="1" height="1.3"/>
			<rect x="621.9" y="601.7" class="st2" width="1" height="1.3"/>
			<rect x="621.9" y="603.5" class="st2" width="1" height="1.3"/>
			<rect x="621.9" y="605.2" class="st2" width="1" height="1.3"/>
			<rect x="621.8" y="607" class="st2" width="1" height="1.3"/>
		</g>
	</g>
</g>
<g id="btn6" class='btn'>
	<g>
		<path class="st2" d="M588.7,596.7c-3.1-4.6-8.9-14.1-8.7-19c0.1-5,4.4-8.9,9.5-8.7c5.1,0.1,9.1,4.3,9,9.2
			C598.3,583.2,591.1,593.7,588.7,596.7z"/>
		<g>
			<polygon class="st3" points="582.9,580.1 589.1,576.8 594.7,580.1 			"/>
			<rect x="586.1" y="576.2" class="st3" width="1.1" height="5.9"/>
			<rect x="590.2" y="576.3" class="st3" width="1.1" height="5.9"/>
			<rect x="583.5" y="580" class="st3" width="1.1" height="2.9"/>
			<rect x="592.8" y="580" class="st3" width="1.1" height="2.9"/>
			<rect x="584.3" y="581.8" class="st3" width="8.9" height="1.1"/>
			<rect x="588.1" y="580.2" class="st3" width="1.1" height="2.3"/>
			<polygon class="st3" points="585.1,576.5 588.9,573.2 592.5,576.5 			"/>
		</g>
	</g>
</g>
<g id="btn5" class='btn'>
	<g>
		<path class="st2" d="M639.4,552.1c-3.1-4.6-8.9-14.1-8.7-19c0.1-5,4.4-8.8,9.5-8.7c5.1,0.1,9.1,4.3,9,9.2
			C649,538.5,641.8,549.1,639.4,552.1z"/>
		<g>
			<polygon class="st3" points="638.1,530.6 642.5,530.6 640.4,528.8 			"/>
			<polygon class="st3" points="636.7,530.9 636.7,531.4 637.1,531.4 637.1,538.1 636.7,538.1 636.7,538.6 643.7,538.6 643.7,538.1 
				643.4,538.1 643.4,531.4 643.9,531.4 643.8,530.9 			"/>
			<rect x="638.1" y="531.8" class="st2" width="1" height="1.3"/>
			<rect x="638.1" y="533.6" class="st2" width="1" height="1.3"/>
			<rect x="638.1" y="535.2" class="st2" width="1" height="1.3"/>
			<rect x="638" y="537.1" class="st2" width="1" height="1.3"/>
			<rect x="639.7" y="531.8" class="st2" width="1" height="1.3"/>
			<rect x="639.7" y="533.6" class="st2" width="1" height="1.3"/>
			<rect x="639.7" y="535.2" class="st2" width="1" height="1.3"/>
			<rect x="639.7" y="537.1" class="st2" width="1" height="1.3"/>
			<rect x="641.2" y="531.8" class="st2" width="1" height="1.3"/>
			<rect x="641.2" y="533.6" class="st2" width="1" height="1.3"/>
			<rect x="641.2" y="535.2" class="st2" width="1" height="1.3"/>
			<rect x="641.2" y="537.1" class="st2" width="1" height="1.3"/>
		</g>
	</g>
</g>
<g id="btn4" class='btn'>
	<g>
		<path class="st2" d="M742.6,591.6c-3.1-4.6-8.9-14.1-8.7-19c0.1-5,4.4-8.8,9.5-8.7c5.1,0.1,9.1,4.3,9,9.2
			C752.2,578.1,745.1,588.6,742.6,591.6z"/>
		<g>
			<polygon class="st3" points="736.8,575 743,571.6 748.6,575 			"/>
			<rect x="740" y="571.1" class="st3" width="1.1" height="5.9"/>
			<rect x="744.1" y="571.1" class="st3" width="1.1" height="5.9"/>
			<rect x="737.4" y="574.8" class="st3" width="1.1" height="2.9"/>
			<rect x="746.7" y="574.9" class="st3" width="1.1" height="2.9"/>
			<rect x="738.2" y="576.7" class="st3" width="8.9" height="1.1"/>
			<rect x="742" y="575.1" class="st3" width="1.1" height="2.3"/>
			<polygon class="st3" points="739,571.4 742.9,568.1 746.4,571.4 			"/>
		</g>
	</g>
</g>
<g id="btn3" class='btn'>
	<g>
		<path class="st2" d="M804.5,433.1c-3.1-4.6-8.9-14.1-8.7-19c0.1-5,4.4-8.8,9.5-8.7c5.1,0.1,9.1,4.3,9,9.2
			C814.1,419.5,807,430.1,804.5,433.1z"/>
		<g>
			<polygon class="st3" points="798.7,416.4 804.9,413.1 810.5,416.4 			"/>
			<rect x="801.9" y="412.6" class="st3" width="1.1" height="5.9"/>
			<rect x="806" y="412.6" class="st3" width="1.1" height="5.9"/>
			<rect x="799.3" y="416.3" class="st3" width="1.1" height="2.9"/>
			<rect x="808.6" y="416.4" class="st3" width="1.1" height="2.9"/>
			<rect x="800.1" y="418.2" class="st3" width="8.9" height="1.1"/>
			<rect x="803.9" y="416.6" class="st3" width="1.1" height="2.3"/>
			<polygon class="st3" points="800.9,412.9 804.8,409.6 808.3,412.9 			"/>
		</g>
	</g>
</g>
<g id="btn2" class='btn'>
	<g>
		<path class="st2" d="M803.5,373.2c-3.1-4.6-8.9-14.1-8.7-19c0.1-5,4.4-8.8,9.5-8.7c5.1,0.1,9.1,4.3,9,9.2
			C813.1,359.7,805.9,370.2,803.5,373.2z"/>
		<g>
			<polygon class="st3" points="797.7,356.6 803.8,353.2 809.4,356.6 			"/>
			<rect x="800.9" y="352.7" class="st3" width="1.1" height="5.9"/>
			<rect x="804.9" y="352.7" class="st3" width="1.1" height="5.9"/>
			<rect x="798.3" y="356.4" class="st3" width="1.1" height="2.9"/>
			<rect x="807.6" y="356.5" class="st3" width="1.1" height="2.9"/>
			<rect x="799" y="358.3" class="st3" width="8.9" height="1.1"/>
			<rect x="802.9" y="356.7" class="st3" width="1.1" height="2.3"/>
			<polygon class="st3" points="799.9,353 803.7,349.7 807.2,353 			"/>
		</g>
	</g>
</g>
<g id="btn1" class='btn'>
	<g>
		<path class="st2" d="M878.8,354.8c-3.1-4.6-8.9-14.1-8.7-19c0.1-5,4.4-8.8,9.5-8.7c5.1,0.1,9.1,4.3,9,9.2
			C888.4,341.3,881.3,351.8,878.8,354.8z"/>
		<g>
			<polygon class="st3" points="873,338.2 879.2,334.9 884.8,338.2 			"/>
			<rect x="876.2" y="334.3" class="st3" width="1.1" height="5.9"/>
			<rect x="880.3" y="334.4" class="st3" width="1.1" height="5.9"/>
			<rect x="873.7" y="338.1" class="st3" width="1.1" height="2.9"/>
			<rect x="882.9" y="338.2" class="st3" width="1.1" height="2.9"/>
			<rect x="874.4" y="339.9" class="st3" width="8.9" height="1.1"/>
			<rect x="878.2" y="338.4" class="st3" width="1.1" height="2.3"/>
			<polygon class="st3" points="875.2,334.7 879.1,331.3 882.6,334.7 			"/>
		</g>
	</g>
</g>
<g id="btn0" class='btn'>
	<g>
		<path class="st2" d="M886.9,273.4c-3.1-4.6-8.9-14.1-8.7-19c0.1-5,4.4-8.8,9.5-8.7c5.1,0.1,9.1,4.3,9,9.2
			C896.5,259.9,889.4,270.4,886.9,273.4z"/>
		<g>
			<polygon class="st3" points="881.1,256.8 887.3,253.5 892.9,256.8 			"/>
			<rect x="884.3" y="253" class="st3" width="1.1" height="5.9"/>
			<rect x="888.4" y="253" class="st3" width="1.1" height="5.9"/>
			<rect x="881.8" y="256.7" class="st3" width="1.1" height="2.9"/>
			<rect x="891" y="256.8" class="st3" width="1.1" height="2.9"/>
			<rect x="882.5" y="258.5" class="st3" width="8.9" height="1.1"/>
			<rect x="886.3" y="257" class="st3" width="1.1" height="2.3"/>
			<polygon class="st3" points="883.3,253.3 887.2,249.9 890.7,253.3 			"/>
		</g>
	</g>
</g>
</svg>
