<?xml version="1.0" encoding="utf-8"?>
<!-- Generator: Adobe Illustrator 16.0.0, SVG Export Plug-In . SVG Version: 6.00 Build 0)  -->
<!DOCTYPE svg PUBLIC "-//W3C//DTD SVG 1.1//EN" "http://www.w3.org/Graphics/SVG/1.1/DTD/svg11.dtd">
<svg version="1.1" xmlns="http://www.w3.org/2000/svg" xmlns:xlink="http://www.w3.org/1999/xlink" x="0px" y="0px" width="24.6px"
	 height="27.9px" viewBox="0 0 24.6 27.9" style="enable-background:new 0 0 24.6 27.9;" xml:space="preserve">
<style type="text/css">
<![CDATA[
	
		.st0{display:inline;fill-rule:evenodd;clip-rule:evenodd;fill:#FFFFFF;stroke:#FFFFFF;stroke-width:0.5669;stroke-miterlimit:22.9256;}
	
		.st1{display:inline;fill-rule:evenodd;clip-rule:evenodd;fill:#6A695B;stroke:#6A695B;stroke-width:0.5669;stroke-miterlimit:22.9256;}
	.st2{fill-rule:evenodd;clip-rule:evenodd;fill:#6A695B;stroke:#6A695B;stroke-width:0.5669;stroke-miterlimit:22.9256;}
	.st3{display:none;}
]]>
</style>
<g id="图层_1" class="st3">
	<polygon class="st1" points="24.6,13.7 12.5,6.7 0.3,-0.3 0.3,13.7 0.3,27.7 12.5,20.7 	"/>
</g>
<g id="图层_2" class="st3">
	<path class="st1" d="M1.1,1.8H24c3.2,0,5.8,2.6,5.8,5.8v13.9c0,3.2-2.6,5.8-5.8,5.8H1.1c-3.2,0-5.8-2.6-5.8-5.8V7.6
		C-4.8,4.4-2.1,1.8,1.1,1.8z"/>
	<path class="st0" d="M0.3,23.3h19.8l-6-10.5c0,0-0.7,2.3-1.5,1.8C11.7,14,9.9,8.4,9,8.2C8.2,8,5.3,12.1,0.3,23.3z"/>
	<path class="st0" d="M21.1,6.2c2.2,0,4.1,1.8,4.1,4.1c0,2.2-1.8,4.1-4.1,4.1c-2.2,0-4.1-1.8-4.1-4.1C17,8.1,18.8,6.2,21.1,6.2z"/>
</g>
<g id="图层_3">
	<polygon class="st2" style="fill-rule:evenodd;clip-rule:evenodd;fill:#6A695B;stroke:#6A695B;stroke-width:0.5669;stroke-miterlimit:22.9256;" points="0.4,27.6 5.4,27.6 5.4,17.8 18.5,17.8 18.5,8.7 24,8.7 16.7,0.4 8.7,8.4 13.6,8.4 13.6,13.4 0.3,13.4 
			"/>
</g>
</svg>
