<?xml version="1.0" encoding="utf-8"?>
<!-- Generator: Adobe Illustrator 16.0.0, SVG Export Plug-In . SVG Version: 6.00 Build 0)  -->
<!DOCTYPE svg PUBLIC "-//W3C//DTD SVG 1.1//EN" "http://www.w3.org/Graphics/SVG/1.1/DTD/svg11.dtd">
<svg version="1.1" id="path" xmlns="http://www.w3.org/2000/svg" xmlns:xlink="http://www.w3.org/1999/xlink" x="0px" y="0px"
	 width="1190px" height="1684px" viewBox="0 0 1190 1684" enable-background="new 0 0 1190 1684" xml:space="preserve">
<path fill="none" d="M887.388,275.161"/>
<path fill="none" stroke="#000000" stroke-miterlimit="10" d="M642.685,577.46c0,0,3.419,60.089-36.778,85.666
	c0,0-21.657,8.999-37.391,37.277c0,0-14.655,10.083-17.629,36.812c0,0-15.338,52.074-13.832,70.775c0,0-12.042,79.679-18.624,83.863
	c0,0-13.874,23.438-12.502,43.483c0,0,2.392,16.214-4.429,36.874c0,0-11.917,26.66-1.264,59.858
	c0.645,6.884-3.591,46.946-2.514,52.825s15.082,27.725-16.652,79.166c0,0-23.444,57.251-26.197,65.775s-0.236,24.68,11.731,40.063
	c7.299,8.917,10.208,28.867,10.19,36.487s5.164,20.57,12.346,25.241s8.307,9.585,8.983,12.082s1.018,5.531,1.026,6.408,275.813c0,0,4.331,68.166-7.533,80.03
	c0,0-24.943,4.645-36.95-6.963c0,0-6.39,10.851-10.146,24.639c-2.115,7.763-9.561,12.499-14.82,15.193
	c0,0-26.782,18.404-36.164,54.646c-6.032,23.302-10.093,42.549-19.372,49.195c0,0-21.042,21.963-44.457,25.629
	s-64.646,51.409-75.338,58.662"/>
<path fill="none" stroke="#000000" stroke-miterlimit="10" d="M887.466,275.813c0,0,4.331,68.166-7.533,80.03
	c0,0-24.943,4.645-36.95-6.963c0,0-6.39,10.851-10.146,24.639c-2.115,7.763-9.561,12.499-14.82,15.193
	c0,0-26.782,18.404-36.164,54.646c-6.032,23.302-10.093,42.549-19.372,49.195c0,0-21.042,21.963-44.457,25.629
	s-64.646,51.409-75.338,58.662"/>
</svg>
